G75*
G70*
%OFA0B0*%
%FSLAX24Y24*%
%IPPOS*%
%LPD*%
%AMOC8*
5,1,8,0,0,1.08239X$1,22.5*
%
%ADD10C,0.0000*%
%ADD11C,0.0050*%
%ADD12C,0.0040*%
%ADD13C,0.0060*%
%ADD14R,0.0340X0.0240*%
%ADD15R,0.0240X0.0340*%
%ADD16C,0.0070*%
%ADD17C,0.0100*%
%ADD18C,0.0080*%
%ADD19C,0.0004*%
%ADD20R,0.2953X0.7677*%
%ADD21R,0.7677X0.2953*%
D10*
X000383Y006773D02*
X000383Y038269D01*
X039753Y038269D01*
X039753Y006773D01*
X000383Y006773D01*
D11*
X009830Y011698D02*
X009980Y011698D01*
X009905Y011698D02*
X009905Y012148D01*
X009830Y012148D02*
X009980Y012148D01*
X010137Y012073D02*
X010212Y012148D01*
X010362Y012148D01*
X010437Y012073D01*
X010598Y011998D02*
X010748Y012148D01*
X010748Y011698D01*
X010598Y011698D02*
X010898Y011698D01*
X010437Y011773D02*
X010362Y011698D01*
X010212Y011698D01*
X010137Y011773D01*
X010137Y012073D01*
X017708Y014398D02*
X017708Y014848D01*
X017933Y014848D01*
X018008Y014773D01*
X018008Y014623D01*
X017933Y014548D01*
X017708Y014548D01*
X017858Y014548D02*
X018008Y014398D01*
X018168Y014398D02*
X018469Y014398D01*
X018318Y014398D02*
X018318Y014848D01*
X018168Y014698D01*
X024021Y010970D02*
X024021Y010576D01*
X024021Y008017D01*
X023233Y008017D01*
X023233Y003096D01*
X023430Y003096D01*
X023430Y001521D01*
X023233Y001521D01*
X023233Y003096D01*
X023233Y001521D02*
X023233Y000143D01*
X029533Y000143D01*
X029533Y001521D01*
X029336Y001521D01*
X029336Y003096D01*
X029533Y003096D01*
X029533Y001521D01*
X028942Y000734D02*
X028942Y007426D01*
X023824Y007426D01*
X023824Y000734D01*
X028942Y000734D01*
X027761Y002308D02*
X025005Y002308D01*
X025399Y002308D02*
X025401Y002370D01*
X025407Y002433D01*
X025417Y002494D01*
X025431Y002555D01*
X025448Y002615D01*
X025469Y002674D01*
X025495Y002731D01*
X025523Y002786D01*
X025555Y002840D01*
X025591Y002891D01*
X025629Y002941D01*
X025671Y002987D01*
X025715Y003031D01*
X025763Y003072D01*
X025812Y003110D01*
X025864Y003144D01*
X025918Y003175D01*
X025974Y003203D01*
X026032Y003227D01*
X026091Y003248D01*
X026151Y003264D01*
X026212Y003277D01*
X026274Y003286D01*
X026336Y003291D01*
X026399Y003292D01*
X026461Y003289D01*
X026523Y003282D01*
X026585Y003271D01*
X026645Y003256D01*
X026705Y003238D01*
X026763Y003216D01*
X026820Y003190D01*
X026875Y003160D01*
X026928Y003127D01*
X026979Y003091D01*
X027027Y003052D01*
X027073Y003009D01*
X027116Y002964D01*
X027156Y002916D01*
X027193Y002866D01*
X027227Y002813D01*
X027258Y002759D01*
X027284Y002703D01*
X027308Y002645D01*
X027327Y002585D01*
X027343Y002525D01*
X027355Y002463D01*
X027363Y002402D01*
X027367Y002339D01*
X027367Y002277D01*
X027363Y002214D01*
X027355Y002153D01*
X027343Y002091D01*
X027327Y002031D01*
X027308Y001971D01*
X027284Y001913D01*
X027258Y001857D01*
X027227Y001803D01*
X027193Y001750D01*
X027156Y001700D01*
X027116Y001652D01*
X027073Y001607D01*
X027027Y001564D01*
X026979Y001525D01*
X026928Y001489D01*
X026875Y001456D01*
X026820Y001426D01*
X026763Y001400D01*
X026705Y001378D01*
X026645Y001360D01*
X026585Y001345D01*
X026523Y001334D01*
X026461Y001327D01*
X026399Y001324D01*
X026336Y001325D01*
X026274Y001330D01*
X026212Y001339D01*
X026151Y001352D01*
X026091Y001368D01*
X026032Y001389D01*
X025974Y001413D01*
X025918Y001441D01*
X025864Y001472D01*
X025812Y001506D01*
X025763Y001544D01*
X025715Y001585D01*
X025671Y001629D01*
X025629Y001675D01*
X025591Y001725D01*
X025555Y001776D01*
X025523Y001830D01*
X025495Y001885D01*
X025469Y001942D01*
X025448Y002001D01*
X025431Y002061D01*
X025417Y002122D01*
X025407Y002183D01*
X025401Y002246D01*
X025399Y002308D01*
X025596Y002308D02*
X025598Y002364D01*
X025604Y002419D01*
X025614Y002473D01*
X025627Y002527D01*
X025645Y002580D01*
X025666Y002631D01*
X025690Y002681D01*
X025718Y002729D01*
X025750Y002775D01*
X025784Y002819D01*
X025822Y002860D01*
X025862Y002898D01*
X025905Y002933D01*
X025950Y002965D01*
X025998Y002994D01*
X026047Y003020D01*
X026098Y003042D01*
X026150Y003060D01*
X026204Y003074D01*
X026259Y003085D01*
X026314Y003092D01*
X026369Y003095D01*
X026425Y003094D01*
X026480Y003089D01*
X026535Y003080D01*
X026589Y003068D01*
X026642Y003051D01*
X026694Y003031D01*
X026744Y003007D01*
X026792Y002980D01*
X026839Y002950D01*
X026883Y002916D01*
X026925Y002879D01*
X026963Y002839D01*
X027000Y002797D01*
X027033Y002752D01*
X027062Y002706D01*
X027089Y002657D01*
X027111Y002606D01*
X027131Y002554D01*
X027146Y002500D01*
X027158Y002446D01*
X027166Y002391D01*
X027170Y002336D01*
X027170Y002280D01*
X027166Y002225D01*
X027158Y002170D01*
X027146Y002116D01*
X027131Y002062D01*
X027111Y002010D01*
X027089Y001959D01*
X027062Y001910D01*
X027033Y001864D01*
X027000Y001819D01*
X026963Y001777D01*
X026925Y001737D01*
X026883Y001700D01*
X026839Y001666D01*
X026792Y001636D01*
X026744Y001609D01*
X026694Y001585D01*
X026642Y001565D01*
X026589Y001548D01*
X026535Y001536D01*
X026480Y001527D01*
X026425Y001522D01*
X026369Y001521D01*
X026314Y001524D01*
X026259Y001531D01*
X026204Y001542D01*
X026150Y001556D01*
X026098Y001574D01*
X026047Y001596D01*
X025998Y001622D01*
X025950Y001651D01*
X025905Y001683D01*
X025862Y001718D01*
X025822Y001756D01*
X025784Y001797D01*
X025750Y001841D01*
X025718Y001887D01*
X025690Y001935D01*
X025666Y001985D01*
X025645Y002036D01*
X025627Y002089D01*
X025614Y002143D01*
X025604Y002197D01*
X025598Y002252D01*
X025596Y002308D01*
X026383Y003686D02*
X026383Y000930D01*
X029533Y003096D02*
X029533Y008017D01*
X028745Y008017D01*
X027958Y008017D01*
X027958Y009592D01*
X028351Y009592D01*
X028351Y010576D01*
X028745Y010576D01*
X028745Y008017D01*
X027958Y008017D02*
X026974Y008017D01*
X026974Y009592D01*
X026580Y009592D01*
X026580Y010576D01*
X026580Y010970D01*
X026186Y010970D01*
X026186Y010576D01*
X026186Y009592D01*
X025792Y009592D01*
X025792Y008017D01*
X024808Y008017D01*
X024808Y009592D01*
X024414Y009592D01*
X024414Y010576D01*
X024414Y010379D01*
X024414Y010576D02*
X024021Y010576D01*
X024414Y010576D02*
X024414Y010970D01*
X024021Y010970D01*
X026186Y010576D02*
X026580Y010576D01*
X028351Y010576D02*
X028351Y010970D01*
X028745Y010970D01*
X028745Y010576D01*
X026974Y008017D02*
X025792Y008017D01*
X024808Y008017D02*
X024021Y008017D01*
X032233Y008017D02*
X032233Y003096D01*
X032430Y003096D01*
X032430Y001521D01*
X032233Y001521D01*
X032233Y000143D01*
X038533Y000143D01*
X038533Y001521D01*
X038336Y001521D01*
X038336Y003096D01*
X038533Y003096D01*
X038533Y008017D01*
X037745Y008017D01*
X037745Y010576D01*
X037351Y010576D01*
X037351Y009592D01*
X036958Y009592D01*
X036958Y008017D01*
X037745Y008017D01*
X037942Y007426D02*
X032824Y007426D01*
X032824Y000734D01*
X037942Y000734D01*
X037942Y007426D01*
X036958Y008017D02*
X035974Y008017D01*
X035974Y009592D01*
X035580Y009592D01*
X035580Y010576D01*
X035186Y010576D01*
X035186Y009592D01*
X034792Y009592D01*
X034792Y008017D01*
X035974Y008017D01*
X034792Y008017D02*
X033808Y008017D01*
X033808Y009592D01*
X033414Y009592D01*
X033414Y010576D01*
X033021Y010576D01*
X033021Y008017D01*
X032233Y008017D01*
X033021Y008017D02*
X033808Y008017D01*
X033414Y010576D02*
X033414Y010970D01*
X033021Y010970D01*
X033021Y010576D01*
X035186Y010576D02*
X035186Y010970D01*
X035580Y010970D01*
X035580Y010576D01*
X037351Y010576D02*
X037351Y010379D01*
X037351Y010576D02*
X037351Y010970D01*
X037745Y010970D01*
X037745Y010576D01*
X035383Y003686D02*
X035383Y000930D01*
X034399Y002308D02*
X034401Y002370D01*
X034407Y002433D01*
X034417Y002494D01*
X034431Y002555D01*
X034448Y002615D01*
X034469Y002674D01*
X034495Y002731D01*
X034523Y002786D01*
X034555Y002840D01*
X034591Y002891D01*
X034629Y002941D01*
X034671Y002987D01*
X034715Y003031D01*
X034763Y003072D01*
X034812Y003110D01*
X034864Y003144D01*
X034918Y003175D01*
X034974Y003203D01*
X035032Y003227D01*
X035091Y003248D01*
X035151Y003264D01*
X035212Y003277D01*
X035274Y003286D01*
X035336Y003291D01*
X035399Y003292D01*
X035461Y003289D01*
X035523Y003282D01*
X035585Y003271D01*
X035645Y003256D01*
X035705Y003238D01*
X035763Y003216D01*
X035820Y003190D01*
X035875Y003160D01*
X035928Y003127D01*
X035979Y003091D01*
X036027Y003052D01*
X036073Y003009D01*
X036116Y002964D01*
X036156Y002916D01*
X036193Y002866D01*
X036227Y002813D01*
X036258Y002759D01*
X036284Y002703D01*
X036308Y002645D01*
X036327Y002585D01*
X036343Y002525D01*
X036355Y002463D01*
X036363Y002402D01*
X036367Y002339D01*
X036367Y002277D01*
X036363Y002214D01*
X036355Y002153D01*
X036343Y002091D01*
X036327Y002031D01*
X036308Y001971D01*
X036284Y001913D01*
X036258Y001857D01*
X036227Y001803D01*
X036193Y001750D01*
X036156Y001700D01*
X036116Y001652D01*
X036073Y001607D01*
X036027Y001564D01*
X035979Y001525D01*
X035928Y001489D01*
X035875Y001456D01*
X035820Y001426D01*
X035763Y001400D01*
X035705Y001378D01*
X035645Y001360D01*
X035585Y001345D01*
X035523Y001334D01*
X035461Y001327D01*
X035399Y001324D01*
X035336Y001325D01*
X035274Y001330D01*
X035212Y001339D01*
X035151Y001352D01*
X035091Y001368D01*
X035032Y001389D01*
X034974Y001413D01*
X034918Y001441D01*
X034864Y001472D01*
X034812Y001506D01*
X034763Y001544D01*
X034715Y001585D01*
X034671Y001629D01*
X034629Y001675D01*
X034591Y001725D01*
X034555Y001776D01*
X034523Y001830D01*
X034495Y001885D01*
X034469Y001942D01*
X034448Y002001D01*
X034431Y002061D01*
X034417Y002122D01*
X034407Y002183D01*
X034401Y002246D01*
X034399Y002308D01*
X034005Y002308D02*
X036761Y002308D01*
X034596Y002308D02*
X034598Y002364D01*
X034604Y002419D01*
X034614Y002473D01*
X034627Y002527D01*
X034645Y002580D01*
X034666Y002631D01*
X034690Y002681D01*
X034718Y002729D01*
X034750Y002775D01*
X034784Y002819D01*
X034822Y002860D01*
X034862Y002898D01*
X034905Y002933D01*
X034950Y002965D01*
X034998Y002994D01*
X035047Y003020D01*
X035098Y003042D01*
X035150Y003060D01*
X035204Y003074D01*
X035259Y003085D01*
X035314Y003092D01*
X035369Y003095D01*
X035425Y003094D01*
X035480Y003089D01*
X035535Y003080D01*
X035589Y003068D01*
X035642Y003051D01*
X035694Y003031D01*
X035744Y003007D01*
X035792Y002980D01*
X035839Y002950D01*
X035883Y002916D01*
X035925Y002879D01*
X035963Y002839D01*
X036000Y002797D01*
X036033Y002752D01*
X036062Y002706D01*
X036089Y002657D01*
X036111Y002606D01*
X036131Y002554D01*
X036146Y002500D01*
X036158Y002446D01*
X036166Y002391D01*
X036170Y002336D01*
X036170Y002280D01*
X036166Y002225D01*
X036158Y002170D01*
X036146Y002116D01*
X036131Y002062D01*
X036111Y002010D01*
X036089Y001959D01*
X036062Y001910D01*
X036033Y001864D01*
X036000Y001819D01*
X035963Y001777D01*
X035925Y001737D01*
X035883Y001700D01*
X035839Y001666D01*
X035792Y001636D01*
X035744Y001609D01*
X035694Y001585D01*
X035642Y001565D01*
X035589Y001548D01*
X035535Y001536D01*
X035480Y001527D01*
X035425Y001522D01*
X035369Y001521D01*
X035314Y001524D01*
X035259Y001531D01*
X035204Y001542D01*
X035150Y001556D01*
X035098Y001574D01*
X035047Y001596D01*
X034998Y001622D01*
X034950Y001651D01*
X034905Y001683D01*
X034862Y001718D01*
X034822Y001756D01*
X034784Y001797D01*
X034750Y001841D01*
X034718Y001887D01*
X034690Y001935D01*
X034666Y001985D01*
X034645Y002036D01*
X034627Y002089D01*
X034614Y002143D01*
X034604Y002197D01*
X034598Y002252D01*
X034596Y002308D01*
X032233Y003096D02*
X032233Y001521D01*
X038533Y001521D02*
X038533Y003096D01*
X030469Y016898D02*
X030168Y016898D01*
X030469Y017198D01*
X030469Y017273D01*
X030394Y017348D01*
X030243Y017348D01*
X030168Y017273D01*
X030008Y017273D02*
X030008Y017123D01*
X029933Y017048D01*
X029708Y017048D01*
X029708Y016898D02*
X029708Y017348D01*
X029933Y017348D01*
X030008Y017273D01*
X029858Y017048D02*
X030008Y016898D01*
X011758Y025598D02*
X011308Y025598D01*
X011308Y025823D01*
X011383Y025898D01*
X011533Y025898D01*
X011608Y025823D01*
X011608Y025598D01*
X011608Y025748D02*
X011758Y025898D01*
X011683Y026058D02*
X011533Y026058D01*
X011533Y026283D01*
X011608Y026359D01*
X011683Y026359D01*
X011758Y026283D01*
X011758Y026133D01*
X011683Y026058D01*
X011533Y026058D02*
X011383Y026208D01*
X011308Y026359D01*
X008758Y026283D02*
X008758Y026133D01*
X008683Y026058D01*
X008533Y026058D02*
X008458Y026208D01*
X008458Y026283D01*
X008533Y026359D01*
X008683Y026359D01*
X008758Y026283D01*
X008533Y026058D02*
X008308Y026058D01*
X008308Y026359D01*
X008383Y025898D02*
X008308Y025823D01*
X008308Y025598D01*
X008758Y025598D01*
X008608Y025598D02*
X008608Y025823D01*
X008533Y025898D01*
X008383Y025898D01*
X008608Y025748D02*
X008758Y025898D01*
X004904Y028398D02*
X004904Y028848D01*
X004679Y028623D01*
X004979Y028623D01*
X004519Y028398D02*
X004293Y028623D01*
X004218Y028548D02*
X004519Y028848D01*
X004218Y028848D02*
X004218Y028398D01*
X004058Y028473D02*
X004058Y028773D01*
X003983Y028848D01*
X003833Y028848D01*
X003758Y028773D01*
X003758Y028473D01*
X003833Y028398D01*
X003983Y028398D01*
X004058Y028473D01*
X004581Y032690D02*
X004506Y032765D01*
X004506Y032915D01*
X004580Y032990D01*
X004505Y033150D02*
X004654Y033300D01*
X004655Y033225D02*
X004654Y033451D01*
X004504Y033450D02*
X004954Y033452D01*
X004955Y033226D01*
X004880Y033151D01*
X004730Y033151D01*
X004655Y033225D01*
X004881Y032991D02*
X004956Y032916D01*
X004957Y032766D01*
X004882Y032691D01*
X004807Y032691D01*
X004731Y032765D01*
X004657Y032690D01*
X004581Y032690D01*
X004731Y032765D02*
X004731Y032840D01*
X003457Y032764D02*
X003232Y032989D01*
X003232Y032689D01*
X003007Y032763D02*
X003457Y032764D01*
X003382Y033149D02*
X003232Y033149D01*
X003156Y033224D01*
X003156Y033449D01*
X003156Y033299D02*
X003006Y033149D01*
X003006Y033449D02*
X003456Y033450D01*
X003457Y033225D01*
X003382Y033149D01*
X003533Y038273D02*
X001383Y038273D01*
D12*
X001412Y035493D02*
X001292Y035493D01*
X001232Y035433D01*
X001104Y035493D02*
X000984Y035493D01*
X001044Y035493D02*
X001044Y035192D01*
X000984Y035132D01*
X000924Y035132D01*
X000864Y035192D01*
X001232Y035132D02*
X001472Y035373D01*
X001472Y035433D01*
X001412Y035493D01*
X001472Y035132D02*
X001232Y035132D01*
X026903Y033055D02*
X027056Y032902D01*
X026903Y033055D02*
X027363Y033055D01*
X027363Y032902D02*
X027363Y033208D01*
X027440Y032748D02*
X027440Y032441D01*
X027363Y032288D02*
X027363Y031981D01*
X026903Y031981D01*
X026903Y032288D01*
X027133Y032134D02*
X027133Y031981D01*
X027286Y031827D02*
X026979Y031827D01*
X026903Y031751D01*
X026903Y031521D01*
X027363Y031521D01*
X027363Y031751D01*
X027286Y031827D01*
X027286Y031367D02*
X026979Y031367D01*
X026903Y031290D01*
X026903Y031137D01*
X026979Y031060D01*
X027286Y031060D01*
X027363Y031137D01*
X027363Y031290D01*
X027286Y031367D01*
X027363Y030907D02*
X027363Y030753D01*
X027363Y030830D02*
X026903Y030830D01*
X026903Y030753D02*
X026903Y030907D01*
X026979Y030600D02*
X026903Y030523D01*
X026903Y030293D01*
X027363Y030293D01*
X027363Y030523D01*
X027286Y030600D01*
X026979Y030600D01*
X026979Y022708D02*
X026903Y022632D01*
X026903Y022478D01*
X026979Y022402D01*
X026979Y022708D02*
X027056Y022708D01*
X027363Y022402D01*
X027363Y022708D01*
X027440Y022248D02*
X027440Y021941D01*
X027363Y021788D02*
X027363Y021481D01*
X026903Y021481D01*
X026903Y021788D01*
X027133Y021634D02*
X027133Y021481D01*
X027286Y021327D02*
X026979Y021327D01*
X026903Y021251D01*
X026903Y021021D01*
X027363Y021021D01*
X027363Y021251D01*
X027286Y021327D01*
X027286Y020867D02*
X026979Y020867D01*
X026903Y020790D01*
X026903Y020637D01*
X026979Y020560D01*
X027286Y020560D01*
X027363Y020637D01*
X027363Y020790D01*
X027286Y020867D01*
X027363Y020407D02*
X027363Y020253D01*
X027363Y020330D02*
X026903Y020330D01*
X026903Y020253D02*
X026903Y020407D01*
X026979Y020100D02*
X026903Y020023D01*
X026903Y019793D01*
X027363Y019793D01*
X027363Y020023D01*
X027286Y020100D01*
X026979Y020100D01*
X033708Y012805D02*
X033631Y012728D01*
X033631Y012575D01*
X033708Y012498D01*
X034015Y012498D01*
X034091Y012575D01*
X034091Y012728D01*
X034015Y012805D01*
X033861Y012805D01*
X033861Y012651D01*
X032123Y011427D02*
X032123Y011120D01*
X032123Y011273D02*
X031662Y011273D01*
X031816Y011120D01*
X035993Y012575D02*
X036070Y012498D01*
X036377Y012498D01*
X036454Y012575D01*
X036454Y012728D01*
X036377Y012805D01*
X036070Y012805D02*
X035993Y012728D01*
X035993Y012575D01*
X038159Y012498D02*
X038619Y012498D01*
X038619Y012805D01*
X038389Y012651D02*
X038389Y012498D01*
X038159Y012498D02*
X038159Y012805D01*
D13*
X032133Y015923D02*
X032133Y016623D01*
X032131Y016640D01*
X032127Y016657D01*
X032120Y016673D01*
X032110Y016687D01*
X032097Y016700D01*
X032083Y016710D01*
X032067Y016717D01*
X032050Y016721D01*
X032033Y016723D01*
X031883Y016723D01*
X031833Y016673D01*
X029933Y016673D01*
X029883Y016723D01*
X029733Y016723D01*
X029716Y016721D01*
X029699Y016717D01*
X029683Y016710D01*
X029669Y016700D01*
X029656Y016687D01*
X029646Y016673D01*
X029639Y016657D01*
X029635Y016640D01*
X029633Y016623D01*
X029633Y015923D01*
X029635Y015906D01*
X029639Y015889D01*
X029646Y015873D01*
X029656Y015859D01*
X029669Y015846D01*
X029683Y015836D01*
X029699Y015829D01*
X029716Y015825D01*
X029733Y015823D01*
X029883Y015823D01*
X029933Y015873D01*
X031833Y015873D01*
X031883Y015823D01*
X032033Y015823D01*
X032050Y015825D01*
X032067Y015829D01*
X032083Y015836D01*
X032097Y015846D01*
X032110Y015859D01*
X032120Y015873D01*
X032127Y015889D01*
X032131Y015906D01*
X032133Y015923D01*
X020133Y014123D02*
X020133Y013423D01*
X020131Y013406D01*
X020127Y013389D01*
X020120Y013373D01*
X020110Y013359D01*
X020097Y013346D01*
X020083Y013336D01*
X020067Y013329D01*
X020050Y013325D01*
X020033Y013323D01*
X019883Y013323D01*
X019833Y013373D01*
X017933Y013373D01*
X017883Y013323D01*
X017733Y013323D01*
X017716Y013325D01*
X017699Y013329D01*
X017683Y013336D01*
X017669Y013346D01*
X017656Y013359D01*
X017646Y013373D01*
X017639Y013389D01*
X017635Y013406D01*
X017633Y013423D01*
X017633Y014123D01*
X017635Y014140D01*
X017639Y014157D01*
X017646Y014173D01*
X017656Y014187D01*
X017669Y014200D01*
X017683Y014210D01*
X017699Y014217D01*
X017716Y014221D01*
X017733Y014223D01*
X017883Y014223D01*
X017933Y014173D01*
X019833Y014173D01*
X019883Y014223D01*
X020033Y014223D01*
X020050Y014221D01*
X020067Y014217D01*
X020083Y014210D01*
X020097Y014200D01*
X020110Y014187D01*
X020120Y014173D01*
X020127Y014157D01*
X020131Y014140D01*
X020133Y014123D01*
X011033Y012273D02*
X010283Y012273D01*
X010281Y012312D01*
X010275Y012351D01*
X010266Y012389D01*
X010253Y012426D01*
X010236Y012462D01*
X010216Y012495D01*
X010192Y012527D01*
X010166Y012556D01*
X010137Y012582D01*
X010105Y012606D01*
X010072Y012626D01*
X010036Y012643D01*
X009999Y012656D01*
X009961Y012665D01*
X009922Y012671D01*
X009883Y012673D01*
X009844Y012671D01*
X009805Y012665D01*
X009767Y012656D01*
X009730Y012643D01*
X009694Y012626D01*
X009661Y012606D01*
X009629Y012582D01*
X009600Y012556D01*
X009574Y012527D01*
X009550Y012495D01*
X009530Y012462D01*
X009513Y012426D01*
X009500Y012389D01*
X009491Y012351D01*
X009485Y012312D01*
X009483Y012273D01*
X008733Y012273D01*
X008733Y016273D01*
X011033Y016273D01*
X011033Y012273D01*
X006033Y024273D02*
X003733Y024273D01*
X003733Y028273D01*
X004483Y028273D01*
X004485Y028234D01*
X004491Y028195D01*
X004500Y028157D01*
X004513Y028120D01*
X004530Y028084D01*
X004550Y028051D01*
X004574Y028019D01*
X004600Y027990D01*
X004629Y027964D01*
X004661Y027940D01*
X004694Y027920D01*
X004730Y027903D01*
X004767Y027890D01*
X004805Y027881D01*
X004844Y027875D01*
X004883Y027873D01*
X004922Y027875D01*
X004961Y027881D01*
X004999Y027890D01*
X005036Y027903D01*
X005072Y027920D01*
X005105Y027940D01*
X005137Y027964D01*
X005166Y027990D01*
X005192Y028019D01*
X005216Y028051D01*
X005236Y028084D01*
X005253Y028120D01*
X005266Y028157D01*
X005275Y028195D01*
X005281Y028234D01*
X005283Y028273D01*
X006033Y028273D01*
X006033Y024273D01*
X008933Y025623D02*
X008933Y025773D01*
X008983Y025823D01*
X008983Y027723D01*
X008933Y027773D01*
X008933Y027923D01*
X008935Y027940D01*
X008939Y027957D01*
X008946Y027973D01*
X008956Y027987D01*
X008969Y028000D01*
X008983Y028010D01*
X008999Y028017D01*
X009016Y028021D01*
X009033Y028023D01*
X009733Y028023D01*
X009750Y028021D01*
X009767Y028017D01*
X009783Y028010D01*
X009797Y028000D01*
X009810Y027987D01*
X009820Y027973D01*
X009827Y027957D01*
X009831Y027940D01*
X009833Y027923D01*
X009833Y027773D01*
X009783Y027723D01*
X009783Y025823D01*
X009833Y025773D01*
X009833Y025623D01*
X009831Y025606D01*
X009827Y025589D01*
X009820Y025573D01*
X009810Y025559D01*
X009797Y025546D01*
X009783Y025536D01*
X009767Y025529D01*
X009750Y025525D01*
X009733Y025523D01*
X009033Y025523D01*
X009016Y025525D01*
X008999Y025529D01*
X008983Y025536D01*
X008969Y025546D01*
X008956Y025559D01*
X008946Y025573D01*
X008939Y025589D01*
X008935Y025606D01*
X008933Y025623D01*
X011933Y025623D02*
X011933Y025773D01*
X011983Y025823D01*
X011983Y027723D01*
X011933Y027773D01*
X011933Y027923D01*
X011935Y027940D01*
X011939Y027957D01*
X011946Y027973D01*
X011956Y027987D01*
X011969Y028000D01*
X011983Y028010D01*
X011999Y028017D01*
X012016Y028021D01*
X012033Y028023D01*
X012733Y028023D01*
X012750Y028021D01*
X012767Y028017D01*
X012783Y028010D01*
X012797Y028000D01*
X012810Y027987D01*
X012820Y027973D01*
X012827Y027957D01*
X012831Y027940D01*
X012833Y027923D01*
X012833Y027773D01*
X012783Y027723D01*
X012783Y025823D01*
X012833Y025773D01*
X012833Y025623D01*
X012831Y025606D01*
X012827Y025589D01*
X012820Y025573D01*
X012810Y025559D01*
X012797Y025546D01*
X012783Y025536D01*
X012767Y025529D01*
X012750Y025525D01*
X012733Y025523D01*
X012033Y025523D01*
X012016Y025525D01*
X011999Y025529D01*
X011983Y025536D01*
X011969Y025546D01*
X011956Y025559D01*
X011946Y025573D01*
X011939Y025589D01*
X011935Y025606D01*
X011933Y025623D01*
X004337Y031124D02*
X004336Y031274D01*
X004286Y031324D01*
X004280Y033224D01*
X004329Y033274D01*
X004329Y033424D01*
X004327Y033444D01*
X004321Y033463D01*
X004312Y033480D01*
X004299Y033495D01*
X004284Y033507D01*
X004267Y033517D01*
X004248Y033522D01*
X004229Y033524D01*
X003529Y033522D01*
X003511Y033520D01*
X003494Y033516D01*
X003479Y033508D01*
X003464Y033498D01*
X003452Y033486D01*
X003442Y033472D01*
X003435Y033456D01*
X003430Y033439D01*
X003429Y033422D01*
X003429Y033421D02*
X003429Y033271D01*
X003480Y033221D01*
X003486Y031321D01*
X003436Y031271D01*
X003437Y031121D01*
X003437Y031122D02*
X003439Y031102D01*
X003445Y031083D01*
X003454Y031066D01*
X003467Y031051D01*
X003482Y031039D01*
X003499Y031029D01*
X003518Y031024D01*
X003537Y031022D01*
X004237Y031024D01*
X004255Y031026D01*
X004272Y031030D01*
X004287Y031038D01*
X004302Y031048D01*
X004314Y031060D01*
X004324Y031074D01*
X004331Y031090D01*
X004336Y031107D01*
X004337Y031124D01*
X002835Y031124D02*
X002835Y031274D01*
X002785Y031324D01*
X002781Y033224D01*
X002831Y033274D01*
X002831Y033424D01*
X002829Y033442D01*
X002825Y033458D01*
X002818Y033474D01*
X002807Y033488D01*
X002795Y033501D01*
X002781Y033511D01*
X002765Y033518D01*
X002748Y033523D01*
X002731Y033524D01*
X002031Y033522D01*
X002011Y033520D01*
X001993Y033514D01*
X001975Y033505D01*
X001960Y033493D01*
X001948Y033477D01*
X001939Y033460D01*
X001933Y033441D01*
X001931Y033422D01*
X001931Y033272D01*
X001981Y033222D01*
X001985Y031322D01*
X001935Y031272D01*
X001935Y031122D01*
X001937Y031104D01*
X001941Y031088D01*
X001948Y031072D01*
X001959Y031058D01*
X001971Y031045D01*
X001985Y031035D01*
X002001Y031028D01*
X002018Y031023D01*
X002035Y031022D01*
X002735Y031024D01*
X002755Y031026D01*
X002773Y031032D01*
X002791Y031041D01*
X002806Y031053D01*
X002818Y031069D01*
X002827Y031086D01*
X002833Y031105D01*
X002835Y031124D01*
D14*
G36*
X002266Y030683D02*
X002265Y031022D01*
X002504Y031023D01*
X002505Y030684D01*
X002266Y030683D01*
G37*
G36*
X003769Y030683D02*
X003768Y031022D01*
X004007Y031023D01*
X004008Y030684D01*
X003769Y030683D01*
G37*
G36*
X003759Y033523D02*
X003758Y033862D01*
X003997Y033863D01*
X003998Y033524D01*
X003759Y033523D01*
G37*
G36*
X002262Y033523D02*
X002261Y033862D01*
X002500Y033863D01*
X002501Y033524D01*
X002262Y033523D01*
G37*
X017463Y013773D03*
X020303Y013773D03*
X029463Y016273D03*
X032303Y016273D03*
D15*
X012383Y025353D03*
X012383Y028193D03*
X009383Y028193D03*
X009383Y025353D03*
D16*
X003447Y037597D02*
X003519Y037669D01*
X003519Y037812D01*
X003447Y037884D01*
X003375Y037884D01*
X003303Y037812D01*
X003303Y037741D01*
X003303Y037812D02*
X003232Y037884D01*
X003160Y037884D01*
X003088Y037812D01*
X003088Y037669D01*
X003160Y037597D01*
X001539Y037647D02*
X001539Y037934D01*
X001539Y037791D02*
X001108Y037791D01*
X001252Y037647D01*
D17*
X001133Y037273D02*
X001633Y037273D01*
X001633Y037023D01*
X002133Y037023D01*
X002133Y037273D01*
X002633Y037273D01*
X002633Y037023D01*
X003133Y037023D01*
X003133Y037273D01*
X003633Y037273D01*
X003633Y037023D01*
X003883Y037023D01*
X003883Y038273D01*
X003533Y038273D01*
X003533Y040723D01*
X003403Y040863D01*
X003383Y041423D02*
X003283Y041623D01*
X002863Y041623D01*
X002903Y041623D02*
X001483Y041623D01*
X001383Y041423D01*
X001383Y038273D01*
X000883Y038273D01*
X000883Y037023D01*
X001133Y037023D01*
X001133Y037273D01*
X001233Y038273D02*
X001233Y040723D01*
X001363Y040863D01*
X003383Y041423D02*
X003383Y038273D01*
D18*
X027672Y036383D02*
X027672Y030163D01*
X029645Y030163D01*
X029645Y030633D01*
X029645Y031913D02*
X029645Y034633D01*
X029645Y035913D02*
X029645Y036383D01*
X027672Y036383D01*
X027672Y025883D02*
X029645Y025883D01*
X029645Y025413D01*
X029645Y024133D02*
X029645Y021413D01*
X029645Y020133D02*
X029645Y019663D01*
X027672Y019663D01*
X027672Y025883D01*
D19*
X027682Y023501D02*
X028455Y023501D01*
X028849Y023501D02*
X029621Y023501D01*
X029621Y022045D02*
X028858Y022045D01*
X028465Y022045D02*
X027702Y022045D01*
X027702Y032545D02*
X028465Y032545D01*
X028858Y032545D02*
X029621Y032545D01*
X029621Y034001D02*
X028849Y034001D01*
X028455Y034001D02*
X027682Y034001D01*
D20*
X019883Y033643D03*
X011383Y034143D03*
D21*
X035253Y035273D03*
X035253Y030273D03*
X035253Y025773D03*
X035253Y020773D03*
M02*
