G75*
G70*
%OFA0B0*%
%FSLAX24Y24*%
%IPPOS*%
%LPD*%
%AMOC8*
5,1,8,0,0,1.08239X$1,22.5*
%
%ADD10C,0.0060*%
%ADD11C,0.0030*%
%ADD12C,0.0040*%
%ADD13C,0.1500*%
%ADD14C,0.0720*%
%ADD15OC8,0.0720*%
%ADD16C,0.0144*%
%ADD17C,0.0800*%
%ADD18C,0.1575*%
%ADD19C,0.0872*%
%ADD20C,0.0200*%
%ADD21C,0.0160*%
%ADD22C,0.0500*%
%ADD23C,0.2000*%
%ADD24C,0.1900*%
D10*
X013008Y020725D02*
X013648Y020725D01*
X013648Y021045D01*
X013542Y021152D01*
X013115Y021152D01*
X013008Y021045D01*
X013008Y020725D01*
X013008Y021369D02*
X013648Y021369D01*
X013648Y021796D01*
X013755Y022014D02*
X013755Y022441D01*
X013648Y022658D02*
X013221Y023085D01*
X013115Y023085D01*
X013008Y022979D01*
X013008Y022765D01*
X013115Y022658D01*
X013648Y022658D02*
X013648Y023085D01*
X013448Y024803D02*
X013448Y025123D01*
X013342Y025230D01*
X012915Y025230D01*
X012808Y025123D01*
X012808Y024803D01*
X013448Y024803D01*
X013342Y025447D02*
X013448Y025554D01*
X013448Y025768D01*
X013342Y025874D01*
X013555Y026092D02*
X013555Y026519D01*
X013342Y026736D02*
X013448Y026843D01*
X013448Y027057D01*
X013342Y027164D01*
X013448Y027381D02*
X013448Y027701D01*
X013342Y027808D01*
X013235Y027808D01*
X013128Y027701D01*
X013128Y027381D01*
X012915Y027164D02*
X012808Y027057D01*
X012808Y026843D01*
X012915Y026736D01*
X013342Y026736D01*
X013448Y027381D02*
X012808Y027381D01*
X012808Y027701D01*
X012915Y027808D01*
X013021Y027808D01*
X013128Y027701D01*
X013555Y028026D02*
X013555Y028453D01*
X013448Y028670D02*
X013448Y029097D01*
X013448Y028670D02*
X013021Y029097D01*
X012915Y029097D01*
X012808Y028990D01*
X012808Y028777D01*
X012915Y028670D01*
X012915Y025874D02*
X012808Y025768D01*
X012808Y025554D01*
X012915Y025447D01*
X013342Y025447D01*
D11*
X010425Y028051D02*
X010425Y028298D01*
X010363Y028420D02*
X010363Y028666D01*
X010363Y028543D02*
X009993Y028543D01*
X010117Y028420D01*
X010363Y027930D02*
X010363Y027683D01*
X009993Y027683D01*
X010055Y027562D02*
X009993Y027500D01*
X009993Y027315D01*
X010363Y027315D01*
X010363Y027500D01*
X010302Y027562D01*
X010055Y027562D01*
D12*
X013585Y034230D02*
X013932Y034230D01*
X014018Y034317D01*
X014018Y034491D01*
X013932Y034577D01*
X014018Y034746D02*
X014018Y035006D01*
X013932Y035093D01*
X013845Y035093D01*
X013758Y035006D01*
X013758Y034746D01*
X013585Y034577D02*
X013498Y034491D01*
X013498Y034317D01*
X013585Y034230D01*
X013498Y034746D02*
X014018Y034746D01*
X013758Y035006D02*
X013671Y035093D01*
X013585Y035093D01*
X013498Y035006D01*
X013498Y034746D01*
X014105Y035262D02*
X014105Y035609D01*
X014018Y035777D02*
X014018Y036124D01*
X014018Y035951D02*
X013498Y035951D01*
X013671Y035777D01*
X036111Y016273D02*
X036111Y016012D01*
X036198Y015926D01*
X036372Y015926D01*
X036458Y016012D01*
X036458Y016273D01*
X036458Y015757D02*
X036458Y015497D01*
X036372Y015410D01*
X036285Y015497D01*
X036285Y015757D01*
X036198Y015757D02*
X036458Y015757D01*
X036198Y015757D02*
X036111Y015670D01*
X036111Y015497D01*
X036025Y015241D02*
X036198Y015241D01*
X036285Y015155D01*
X036285Y014894D01*
X036458Y014894D02*
X035938Y014894D01*
X035938Y015155D01*
X036025Y015241D01*
X035938Y014726D02*
X036458Y014726D01*
X036198Y014726D02*
X036198Y014379D01*
X036458Y014379D02*
X035938Y014379D01*
X035938Y014210D02*
X036458Y014210D01*
X036458Y013863D02*
X035938Y013863D01*
X036111Y014037D01*
X035938Y014210D01*
X036111Y013178D02*
X036111Y013091D01*
X036285Y012918D01*
X036285Y012749D02*
X036285Y012402D01*
X036372Y012402D02*
X036198Y012402D01*
X036111Y012489D01*
X036111Y012662D01*
X036198Y012749D01*
X036285Y012749D01*
X036458Y012662D02*
X036458Y012489D01*
X036372Y012402D01*
X036458Y012234D02*
X036198Y012234D01*
X036111Y012147D01*
X036111Y011973D01*
X036198Y011887D01*
X036111Y011718D02*
X036111Y011458D01*
X036198Y011371D01*
X036285Y011458D01*
X036285Y011631D01*
X036372Y011718D01*
X036458Y011631D01*
X036458Y011371D01*
X036458Y011201D02*
X036458Y011027D01*
X036458Y011114D02*
X036111Y011114D01*
X036111Y011027D01*
X036198Y010857D02*
X036198Y010684D01*
X036111Y010515D02*
X036111Y010255D01*
X036198Y010168D01*
X036372Y010168D01*
X036458Y010255D01*
X036458Y010515D01*
X036545Y010515D02*
X036111Y010515D01*
X036025Y010770D02*
X035938Y010857D01*
X036025Y010770D02*
X036458Y010770D01*
X036545Y010515D02*
X036632Y010428D01*
X036632Y010341D01*
X036458Y009999D02*
X036198Y009999D01*
X036111Y009912D01*
X036111Y009652D01*
X036458Y009652D01*
X036458Y009482D02*
X036458Y009309D01*
X036458Y009395D02*
X036111Y009395D01*
X036111Y009309D01*
X035938Y009395D02*
X035851Y009395D01*
X035938Y009140D02*
X036285Y008793D01*
X036198Y008880D02*
X036458Y009140D01*
X036458Y008793D02*
X035938Y008793D01*
X037438Y008793D02*
X037438Y009053D01*
X037525Y009140D01*
X037872Y009140D01*
X037958Y009053D01*
X037958Y008793D01*
X037438Y008793D01*
X037611Y009309D02*
X037872Y009309D01*
X037958Y009395D01*
X037958Y009655D01*
X037611Y009655D01*
X037611Y009824D02*
X037611Y009911D01*
X037698Y009998D01*
X037611Y010084D01*
X037698Y010171D01*
X037958Y010171D01*
X037958Y010340D02*
X037958Y010600D01*
X037872Y010687D01*
X037698Y010687D01*
X037611Y010600D01*
X037611Y010340D01*
X038132Y010340D01*
X037958Y009998D02*
X037698Y009998D01*
X037611Y009824D02*
X037958Y009824D01*
X037958Y011371D02*
X037958Y011718D01*
X037872Y011887D02*
X037958Y011973D01*
X037958Y012147D01*
X037872Y012234D01*
X037698Y012234D01*
X037611Y012147D01*
X037611Y011973D01*
X037698Y011887D01*
X037872Y011887D01*
X037872Y012402D02*
X037785Y012489D01*
X037785Y012749D01*
X037698Y012749D02*
X037958Y012749D01*
X037958Y012489D01*
X037872Y012402D01*
X037611Y012489D02*
X037611Y012663D01*
X037698Y012749D01*
X037698Y012918D02*
X037611Y013005D01*
X037611Y013265D01*
X037438Y013265D02*
X037958Y013265D01*
X037958Y013005D01*
X037872Y012918D01*
X037698Y012918D01*
X037785Y013949D02*
X037785Y014209D01*
X037698Y014296D01*
X037525Y014296D01*
X037438Y014209D01*
X037438Y013949D01*
X037958Y013949D01*
X037872Y014465D02*
X037958Y014552D01*
X037958Y014725D01*
X037872Y014812D01*
X037958Y014980D02*
X037958Y015241D01*
X037872Y015327D01*
X037785Y015327D01*
X037698Y015241D01*
X037698Y014980D01*
X037525Y014812D02*
X037438Y014725D01*
X037438Y014552D01*
X037525Y014465D01*
X037872Y014465D01*
X037958Y014980D02*
X037438Y014980D01*
X037438Y015241D01*
X037525Y015327D01*
X037611Y015327D01*
X037698Y015241D01*
X036458Y012918D02*
X036111Y012918D01*
X035938Y011887D02*
X036458Y011887D01*
X035938Y011114D02*
X035851Y011114D01*
X037438Y011371D02*
X037958Y011371D01*
D13*
X015644Y011223D02*
X015644Y010323D01*
X015478Y010273D02*
X015478Y010773D01*
X013478Y011223D02*
X013478Y010323D01*
X011313Y010323D02*
X011313Y011223D01*
X006644Y011223D02*
X006644Y010323D01*
X004478Y010323D02*
X004478Y011223D01*
X004478Y010773D02*
X004478Y015773D01*
X002313Y011223D02*
X002313Y010323D01*
D14*
X028262Y012773D02*
X028694Y012773D01*
X028694Y013773D02*
X028262Y013773D01*
X028262Y014773D02*
X028694Y014773D01*
X028694Y015773D02*
X028262Y015773D01*
X031262Y015773D02*
X031694Y015773D01*
X031694Y014773D02*
X031262Y014773D01*
X031262Y013773D02*
X031694Y013773D01*
X031694Y012773D02*
X031262Y012773D01*
X033046Y024773D02*
X033478Y024773D01*
X033478Y025773D02*
X033046Y025773D01*
X033046Y026773D02*
X033478Y026773D01*
X033478Y027773D02*
X033046Y027773D01*
X036478Y027773D02*
X036910Y027773D01*
X036910Y026773D02*
X036478Y026773D01*
X036478Y025773D02*
X036910Y025773D01*
X036910Y024773D02*
X036478Y024773D01*
D15*
X030478Y024773D03*
X027478Y024773D03*
X027478Y028773D03*
X030478Y028773D03*
X022978Y013773D03*
X018978Y013773D03*
X010978Y016273D03*
X006978Y016273D03*
D16*
X035923Y030058D02*
X035851Y029986D01*
X035683Y030156D01*
X035684Y030393D01*
X035854Y030561D01*
X036091Y030560D01*
X036259Y030390D01*
X036258Y030153D01*
X036088Y029985D01*
X035851Y029986D01*
X035897Y030094D01*
X035791Y030200D01*
X035792Y030347D01*
X035898Y030453D01*
X036045Y030452D01*
X036151Y030346D01*
X036150Y030199D01*
X036044Y030093D01*
X035897Y030094D01*
X035942Y030202D01*
X035899Y030245D01*
X035900Y030302D01*
X035943Y030345D01*
X036000Y030344D01*
X036043Y030301D01*
X036042Y030244D01*
X035999Y030201D01*
X035942Y030202D01*
X037428Y030058D02*
X037356Y029986D01*
X037187Y030155D01*
X037188Y030392D01*
X037357Y030561D01*
X037594Y030560D01*
X037763Y030391D01*
X037762Y030154D01*
X037593Y029985D01*
X037356Y029986D01*
X037401Y030094D01*
X037295Y030200D01*
X037296Y030347D01*
X037402Y030453D01*
X037549Y030452D01*
X037655Y030346D01*
X037654Y030199D01*
X037548Y030093D01*
X037401Y030094D01*
X037446Y030202D01*
X037403Y030245D01*
X037404Y030302D01*
X037447Y030345D01*
X037504Y030344D01*
X037547Y030301D01*
X037546Y030244D01*
X037503Y030201D01*
X037446Y030202D01*
X037435Y034058D02*
X037363Y033986D01*
X037194Y034155D01*
X037195Y034392D01*
X037364Y034561D01*
X037601Y034560D01*
X037770Y034391D01*
X037769Y034154D01*
X037600Y033985D01*
X037363Y033986D01*
X037408Y034094D01*
X037302Y034200D01*
X037303Y034347D01*
X037409Y034453D01*
X037556Y034452D01*
X037662Y034346D01*
X037661Y034199D01*
X037555Y034093D01*
X037408Y034094D01*
X037453Y034202D01*
X037410Y034245D01*
X037411Y034302D01*
X037454Y034345D01*
X037511Y034344D01*
X037554Y034301D01*
X037553Y034244D01*
X037510Y034201D01*
X037453Y034202D01*
X035937Y034058D02*
X035865Y033986D01*
X035697Y034156D01*
X035698Y034393D01*
X035868Y034561D01*
X036105Y034560D01*
X036273Y034390D01*
X036272Y034153D01*
X036102Y033985D01*
X035865Y033986D01*
X035911Y034094D01*
X035805Y034200D01*
X035806Y034347D01*
X035912Y034453D01*
X036059Y034452D01*
X036165Y034346D01*
X036164Y034199D01*
X036058Y034093D01*
X035911Y034094D01*
X035956Y034202D01*
X035913Y034245D01*
X035914Y034302D01*
X035957Y034345D01*
X036014Y034344D01*
X036057Y034301D01*
X036056Y034244D01*
X036013Y034201D01*
X035956Y034202D01*
D17*
X036478Y036033D02*
X036478Y036513D01*
X037478Y036513D02*
X037478Y036033D01*
X038478Y036033D02*
X038478Y036513D01*
D18*
X010978Y035273D03*
X010978Y031273D03*
X010978Y024773D03*
X010978Y020773D03*
D19*
X006478Y020773D03*
X002541Y020773D03*
X002541Y025773D03*
X006478Y025773D03*
X006478Y030273D03*
X002541Y030273D03*
X002541Y035273D03*
X006478Y035273D03*
X019978Y035710D03*
X019978Y031773D03*
X028478Y032273D03*
X028478Y036210D03*
D20*
X028478Y032273D01*
X032978Y027773D01*
X033478Y027773D01*
X031478Y019273D02*
X012978Y019273D01*
X010978Y016273D01*
X011478Y014773D02*
X011478Y010773D01*
X011478Y014773D02*
X017978Y014773D01*
X017978Y013773D01*
X018978Y013773D01*
X006978Y016273D02*
X006478Y016273D01*
X006478Y010773D01*
X031478Y015773D02*
X031478Y019273D01*
D21*
X036478Y024773D02*
X037771Y024773D01*
X037821Y024775D01*
X037872Y024780D01*
X037921Y024789D01*
X037970Y024802D01*
X038018Y024818D01*
X038065Y024837D01*
X038110Y024859D01*
X038153Y024885D01*
X038195Y024914D01*
X038234Y024946D01*
X038271Y024980D01*
X038305Y025017D01*
X038337Y025056D01*
X038366Y025098D01*
X038392Y025141D01*
X038414Y025186D01*
X038433Y025233D01*
X038449Y025281D01*
X038462Y025330D01*
X038471Y025379D01*
X038476Y025430D01*
X038478Y025480D01*
X038478Y026773D01*
X038478Y031773D01*
X037978Y032273D01*
X033478Y032273D01*
X033478Y035773D01*
X033978Y036273D01*
X036478Y036273D01*
X037478Y036273D02*
X037478Y035773D01*
X036478Y034773D01*
X036478Y034766D01*
X035985Y034273D01*
X037482Y034273D02*
X037978Y034273D01*
X038478Y034773D01*
X038478Y036273D01*
X037475Y030273D02*
X037475Y028269D01*
X036978Y027773D01*
X036478Y027773D01*
X036478Y026773D02*
X038478Y026773D01*
X035978Y030273D02*
X035971Y030273D01*
D22*
X000946Y008589D02*
X000758Y008401D01*
X000758Y025431D01*
X000848Y025097D01*
X001078Y024698D01*
X001404Y024373D01*
X001803Y024142D01*
X002248Y024023D01*
X006286Y024023D01*
X010824Y023015D01*
X011284Y023034D01*
X011724Y023173D01*
X012112Y023420D01*
X012424Y023760D01*
X012443Y023797D01*
X012477Y023792D01*
X012522Y023790D01*
X012777Y023790D01*
X012673Y023747D01*
X012673Y023746D01*
X012673Y023746D01*
X012562Y023636D01*
X012453Y023527D01*
X012453Y023527D01*
X012347Y023420D01*
X012347Y023420D01*
X012347Y023420D01*
X012284Y023269D01*
X012228Y023134D01*
X012228Y023134D01*
X012228Y023134D01*
X012228Y022980D01*
X012228Y022920D01*
X012228Y022610D01*
X012347Y022323D01*
X012618Y022052D01*
X012566Y022030D01*
X012347Y021811D01*
X012345Y021806D01*
X012339Y021817D01*
X012022Y022133D01*
X011635Y022357D01*
X011202Y022473D01*
X006255Y022473D01*
X002318Y022473D01*
X002255Y022473D01*
X001822Y022357D01*
X001435Y022133D01*
X001118Y021817D01*
X000894Y021429D01*
X000778Y020997D01*
X000778Y015997D01*
X000778Y015549D01*
X000894Y015117D01*
X001118Y014729D01*
X001435Y014413D01*
X001822Y014189D01*
X002255Y014073D01*
X002978Y014073D01*
X002978Y012163D01*
X002870Y012231D01*
X002754Y012287D01*
X002632Y012330D01*
X002506Y012358D01*
X002378Y012373D01*
X002313Y012373D01*
X002313Y011645D01*
X002313Y011645D01*
X002313Y012373D01*
X002249Y012373D01*
X002120Y012358D01*
X001994Y012330D01*
X001872Y012287D01*
X001756Y012231D01*
X001647Y012162D01*
X001546Y012082D01*
X001454Y011990D01*
X001374Y011889D01*
X001305Y011780D01*
X001249Y011664D01*
X001206Y011542D01*
X001178Y011416D01*
X001163Y011287D01*
X001163Y010773D01*
X001441Y010773D01*
X001441Y010773D01*
X001163Y010773D01*
X001163Y010258D01*
X001178Y010130D01*
X001206Y010004D01*
X001249Y009882D01*
X001305Y009766D01*
X001374Y009656D01*
X001441Y009572D01*
X001441Y008692D01*
X001195Y008692D01*
X000946Y008589D01*
X000758Y008767D02*
X001441Y008767D01*
X001441Y009266D02*
X000758Y009266D01*
X000758Y009764D02*
X001306Y009764D01*
X001163Y010263D02*
X000758Y010263D01*
X000758Y010761D02*
X001163Y010761D01*
X001163Y011260D02*
X000758Y011260D01*
X000758Y011758D02*
X001295Y011758D01*
X001810Y012257D02*
X000758Y012257D01*
X000758Y012755D02*
X002978Y012755D01*
X002978Y012257D02*
X002816Y012257D01*
X002313Y012257D02*
X002313Y012257D01*
X002313Y011758D02*
X002313Y011758D01*
X002978Y013254D02*
X000758Y013254D01*
X000758Y013753D02*
X002978Y013753D01*
X001714Y014251D02*
X000758Y014251D01*
X000758Y014750D02*
X001106Y014750D01*
X000859Y015248D02*
X000758Y015248D01*
X000778Y015747D02*
X000758Y015747D01*
X000778Y016245D02*
X000758Y016245D01*
X000778Y016744D02*
X000758Y016744D01*
X000778Y017242D02*
X000758Y017242D01*
X000778Y017741D02*
X000758Y017741D01*
X000778Y018239D02*
X000758Y018239D01*
X000778Y018738D02*
X000758Y018738D01*
X000778Y019236D02*
X000758Y019236D01*
X000778Y019735D02*
X000758Y019735D01*
X000778Y020234D02*
X000758Y020234D01*
X000778Y020732D02*
X000758Y020732D01*
X000758Y021231D02*
X000841Y021231D01*
X000758Y021729D02*
X001068Y021729D01*
X000758Y022228D02*
X001598Y022228D01*
X000758Y022726D02*
X012228Y022726D01*
X012266Y023225D02*
X011805Y023225D01*
X012390Y023723D02*
X012650Y023723D01*
X013917Y023818D02*
X014090Y023747D01*
X014310Y023527D01*
X014428Y023240D01*
X014428Y022854D01*
X014535Y022596D01*
X014535Y021859D01*
X014428Y021601D01*
X014428Y021214D01*
X014426Y021207D01*
X014428Y021200D01*
X014428Y021200D01*
X014428Y021200D01*
X014428Y021043D01*
X014428Y020570D01*
X014310Y020283D01*
X014150Y020123D01*
X031648Y020123D01*
X031960Y019993D01*
X032199Y019754D01*
X032328Y019442D01*
X032328Y019104D01*
X032328Y016689D01*
X032376Y016661D01*
X032583Y016454D01*
X032729Y016201D01*
X032804Y015919D01*
X032804Y015627D01*
X032729Y015344D01*
X032687Y015273D01*
X032729Y015201D01*
X032804Y014919D01*
X032804Y014627D01*
X032729Y014344D01*
X032687Y014273D01*
X032729Y014201D01*
X032804Y013919D01*
X032804Y013627D01*
X032729Y013344D01*
X032687Y013273D01*
X032729Y013201D01*
X032804Y012919D01*
X032804Y012627D01*
X032729Y012344D01*
X032583Y012091D01*
X032376Y011885D01*
X032123Y011739D01*
X031841Y011663D01*
X031116Y011663D01*
X030834Y011739D01*
X030581Y011885D01*
X030374Y012091D01*
X030228Y012344D01*
X030152Y012627D01*
X030152Y012919D01*
X030228Y013201D01*
X030269Y013273D01*
X030228Y013344D01*
X030152Y013627D01*
X030152Y013919D01*
X030228Y014201D01*
X030269Y014273D01*
X030228Y014344D01*
X030152Y014627D01*
X030152Y014919D01*
X030228Y015201D01*
X030269Y015273D01*
X030228Y015344D01*
X030152Y015627D01*
X030152Y015919D01*
X030228Y016201D01*
X030374Y016454D01*
X030581Y016661D01*
X030628Y016689D01*
X030628Y018423D01*
X013433Y018423D01*
X012088Y016406D01*
X012088Y015813D01*
X011898Y015623D01*
X018148Y015623D01*
X018460Y015493D01*
X018699Y015254D01*
X018828Y014942D01*
X018828Y014883D01*
X019438Y014883D01*
X020088Y014233D01*
X020088Y013313D01*
X019438Y012663D01*
X018519Y012663D01*
X018259Y012923D01*
X018148Y012923D01*
X017809Y012923D01*
X017497Y013052D01*
X017258Y013291D01*
X017128Y013604D01*
X017128Y013923D01*
X012328Y013923D01*
X012328Y012329D01*
X012396Y012261D01*
X012557Y012423D01*
X012899Y012621D01*
X013281Y012723D01*
X013676Y012723D01*
X014057Y012621D01*
X014399Y012423D01*
X014679Y012144D01*
X014775Y011978D01*
X014785Y011990D01*
X014876Y012082D01*
X014977Y012162D01*
X015087Y012231D01*
X015203Y012287D01*
X015325Y012330D01*
X015451Y012358D01*
X015579Y012373D01*
X015644Y012373D01*
X015708Y012373D01*
X015837Y012358D01*
X015963Y012330D01*
X016085Y012287D01*
X016201Y012231D01*
X016310Y012162D01*
X016411Y012082D01*
X016503Y011990D01*
X016583Y011889D01*
X016652Y011780D01*
X016708Y011664D01*
X016751Y011542D01*
X016779Y011416D01*
X016794Y011287D01*
X016794Y010773D01*
X016516Y010773D01*
X016516Y010773D01*
X016794Y010773D01*
X016794Y010258D01*
X016779Y010130D01*
X016751Y010004D01*
X016708Y009882D01*
X016652Y009766D01*
X016583Y009656D01*
X016516Y009572D01*
X016516Y008692D01*
X016762Y008692D01*
X017010Y008589D01*
X017200Y008399D01*
X017303Y008151D01*
X017303Y007423D01*
X038828Y007423D01*
X038828Y010009D01*
X038785Y009904D01*
X038728Y009847D01*
X038728Y009844D01*
X038728Y009671D01*
X038728Y009502D01*
X038728Y009242D01*
X038721Y009224D01*
X038728Y009206D01*
X038728Y008900D01*
X038728Y008640D01*
X038611Y008357D01*
X038395Y008140D01*
X038112Y008023D01*
X037805Y008023D01*
X037591Y008023D01*
X037285Y008023D01*
X037002Y008140D01*
X036948Y008194D01*
X036895Y008140D01*
X036612Y008023D01*
X036438Y008023D01*
X036132Y008023D01*
X035785Y008023D01*
X035502Y008140D01*
X035285Y008357D01*
X035168Y008640D01*
X035168Y008946D01*
X035176Y008966D01*
X035168Y008987D01*
X035168Y009033D01*
X035081Y009242D01*
X035081Y009548D01*
X035199Y009831D01*
X035342Y009974D01*
X035342Y010066D01*
X035349Y010084D01*
X035342Y010101D01*
X035342Y010365D01*
X035285Y010421D01*
X035168Y010704D01*
X035168Y010751D01*
X035081Y010961D01*
X035081Y011267D01*
X035199Y011550D01*
X035231Y011582D01*
X035168Y011733D01*
X035168Y012040D01*
X035285Y012323D01*
X035342Y012379D01*
X035342Y012509D01*
X035342Y012765D01*
X035342Y012938D01*
X035342Y013331D01*
X035353Y013359D01*
X035285Y013427D01*
X035264Y013479D01*
X035168Y013710D01*
X035168Y013710D01*
X035168Y014016D01*
X035176Y014037D01*
X035168Y014057D01*
X035168Y014226D01*
X035168Y014532D01*
X035176Y014552D01*
X035168Y014573D01*
X035168Y014741D01*
X035168Y015001D01*
X035168Y015308D01*
X035285Y015591D01*
X035342Y015647D01*
X035342Y015823D01*
X035349Y015841D01*
X035342Y015859D01*
X035342Y016166D01*
X035342Y016426D01*
X035459Y016709D01*
X035675Y016925D01*
X035958Y017043D01*
X036265Y017043D01*
X036285Y017034D01*
X036305Y017043D01*
X036612Y017043D01*
X036895Y016925D01*
X037111Y016709D01*
X037228Y016426D01*
X037228Y016038D01*
X037372Y016097D01*
X037458Y016097D01*
X037632Y016097D01*
X037719Y016097D01*
X038025Y016097D01*
X038308Y015980D01*
X038395Y015893D01*
X038611Y015677D01*
X038728Y015394D01*
X038728Y014827D01*
X038728Y014572D01*
X038728Y014398D01*
X038667Y014250D01*
X038728Y014102D01*
X038728Y013796D01*
X038650Y013607D01*
X038728Y013418D01*
X038728Y013158D01*
X038728Y012851D01*
X038728Y012642D01*
X038728Y012336D01*
X038721Y012318D01*
X038728Y012300D01*
X038728Y012127D01*
X038728Y011820D01*
X038728Y011218D01*
X038632Y010986D01*
X038673Y010888D01*
X038785Y010776D01*
X038828Y010670D01*
X038828Y021773D01*
X023978Y021773D01*
X023978Y037619D01*
X000758Y037619D01*
X000758Y035615D01*
X000848Y035948D01*
X001078Y036347D01*
X001404Y036673D01*
X001803Y036904D01*
X002248Y037023D01*
X006709Y037023D01*
X011209Y037023D01*
X011654Y036904D01*
X012053Y036673D01*
X012379Y036347D01*
X012609Y035948D01*
X012728Y035503D01*
X012728Y035160D01*
X012845Y035442D01*
X012881Y035478D01*
X012845Y035515D01*
X012776Y035682D01*
X012728Y035797D01*
X012728Y035798D01*
X012728Y036104D01*
X012826Y036341D01*
X012845Y036387D01*
X013062Y036603D01*
X013229Y036673D01*
X013345Y036721D01*
X013526Y036721D01*
X013582Y036777D01*
X013865Y036894D01*
X014172Y036894D01*
X014455Y036777D01*
X014671Y036560D01*
X014788Y036277D01*
X014788Y035971D01*
X014875Y035762D01*
X014875Y035108D01*
X014788Y034899D01*
X014788Y034593D01*
X014788Y034470D01*
X014788Y034164D01*
X014671Y033881D01*
X014368Y033578D01*
X014085Y033460D01*
X013779Y033460D01*
X013432Y033460D01*
X013149Y033578D01*
X012932Y033794D01*
X012845Y033881D01*
X012728Y034164D01*
X012728Y034470D01*
X012728Y034644D01*
X012728Y034853D01*
X012728Y035041D01*
X012609Y034597D01*
X012379Y034198D01*
X012053Y033873D01*
X011654Y033642D01*
X011209Y033523D01*
X006709Y033523D01*
X002248Y033523D01*
X001803Y033642D01*
X001404Y033873D01*
X001078Y034198D01*
X000848Y034597D01*
X000758Y034931D01*
X000758Y026115D01*
X000848Y026448D01*
X001078Y026847D01*
X001404Y027173D01*
X001803Y027404D01*
X002248Y027523D01*
X006441Y027523D01*
X006633Y027531D01*
X006671Y027523D01*
X006709Y027523D01*
X006895Y027473D01*
X009323Y026933D01*
X009228Y027162D01*
X009228Y027348D01*
X009228Y027498D01*
X009228Y027531D01*
X009228Y027835D01*
X009343Y028113D01*
X009255Y028326D01*
X009228Y028391D01*
X009228Y028545D01*
X009228Y028695D01*
X009228Y028695D01*
X009228Y028695D01*
X009249Y028746D01*
X009345Y028976D01*
X009348Y028980D01*
X009526Y029157D01*
X006895Y028573D01*
X006709Y028523D01*
X006671Y028523D01*
X006633Y028515D01*
X006441Y028523D01*
X002311Y028523D01*
X001866Y028642D01*
X001467Y028873D01*
X001141Y029198D01*
X000911Y029597D01*
X000791Y030042D01*
X000791Y030503D01*
X000911Y030948D01*
X001141Y031347D01*
X001467Y031673D01*
X001866Y031904D01*
X002311Y032023D01*
X006286Y032023D01*
X010824Y033031D01*
X011284Y033011D01*
X011724Y032873D01*
X012112Y032626D01*
X012424Y032286D01*
X012637Y031877D01*
X012737Y031428D01*
X012717Y030967D01*
X012579Y030528D01*
X012399Y030245D01*
X012432Y030251D01*
X012477Y030257D01*
X012522Y030259D01*
X013734Y030259D01*
X013780Y030257D01*
X013825Y030251D01*
X013869Y030243D01*
X013913Y030232D01*
X013957Y030219D01*
X013999Y030203D01*
X014040Y030184D01*
X014080Y030163D01*
X014119Y030139D01*
X014156Y030114D01*
X014192Y030086D01*
X014226Y030056D01*
X014258Y030024D01*
X014288Y029990D01*
X014316Y029954D01*
X014342Y029917D01*
X014365Y029878D01*
X014386Y029838D01*
X014405Y029796D01*
X014421Y029754D01*
X014435Y029711D01*
X014445Y029667D01*
X014454Y029622D01*
X014459Y029577D01*
X014462Y029532D01*
X014462Y024517D01*
X014459Y024472D01*
X014454Y024427D01*
X014445Y024382D01*
X014435Y024338D01*
X014421Y024295D01*
X014405Y024252D01*
X014386Y024211D01*
X014365Y024171D01*
X014342Y024132D01*
X014316Y024095D01*
X014288Y024059D01*
X014258Y024025D01*
X014226Y023993D01*
X014192Y023963D01*
X014156Y023935D01*
X014119Y023909D01*
X014080Y023886D01*
X014040Y023865D01*
X013999Y023846D01*
X013957Y023830D01*
X013917Y023818D01*
X014113Y023723D02*
X023978Y023723D01*
X023978Y023225D02*
X014428Y023225D01*
X014481Y022726D02*
X023978Y022726D01*
X023978Y022228D02*
X014535Y022228D01*
X014482Y021729D02*
X038828Y021729D01*
X038828Y021231D02*
X014428Y021231D01*
X014428Y020732D02*
X038828Y020732D01*
X038828Y020234D02*
X014260Y020234D01*
X013311Y018239D02*
X030628Y018239D01*
X030628Y017741D02*
X012979Y017741D01*
X012646Y017242D02*
X030628Y017242D01*
X030628Y016744D02*
X029233Y016744D01*
X029123Y016807D02*
X029376Y016661D01*
X029583Y016454D01*
X029729Y016201D01*
X029804Y015919D01*
X029804Y015627D01*
X029729Y015344D01*
X029583Y015091D01*
X029435Y014944D01*
X029441Y014921D01*
X029454Y014823D01*
X029454Y014773D01*
X029183Y014773D01*
X029182Y014773D01*
X029183Y014773D01*
X029454Y014773D01*
X029454Y014723D01*
X029441Y014624D01*
X029435Y014602D01*
X029583Y014454D01*
X029729Y014201D01*
X029804Y013919D01*
X029804Y013627D01*
X029729Y013344D01*
X029687Y013273D01*
X029729Y013201D01*
X029804Y012919D01*
X029804Y012627D01*
X029729Y012344D01*
X029583Y012091D01*
X029376Y011885D01*
X029123Y011739D01*
X028841Y011663D01*
X028116Y011663D01*
X027834Y011739D01*
X027581Y011885D01*
X027374Y012091D01*
X027228Y012344D01*
X027152Y012627D01*
X027152Y012919D01*
X027228Y013201D01*
X027269Y013273D01*
X027228Y013344D01*
X027152Y013627D01*
X027152Y013919D01*
X027228Y014201D01*
X027374Y014454D01*
X027522Y014602D01*
X027515Y014624D01*
X027502Y014723D01*
X027502Y014773D01*
X027502Y014823D01*
X027515Y014921D01*
X027522Y014944D01*
X027374Y015091D01*
X027228Y015344D01*
X027152Y015627D01*
X027152Y015919D01*
X027228Y016201D01*
X027374Y016454D01*
X027581Y016661D01*
X027834Y016807D01*
X028116Y016883D01*
X028841Y016883D01*
X029123Y016807D01*
X029703Y016245D02*
X030253Y016245D01*
X030152Y015747D02*
X029804Y015747D01*
X029673Y015248D02*
X030255Y015248D01*
X030152Y014750D02*
X029454Y014750D01*
X029700Y014251D02*
X030257Y014251D01*
X030152Y013753D02*
X029804Y013753D01*
X029698Y013254D02*
X030259Y013254D01*
X030152Y012755D02*
X029804Y012755D01*
X029678Y012257D02*
X030279Y012257D01*
X030800Y011758D02*
X029157Y011758D01*
X027800Y011758D02*
X016662Y011758D01*
X016147Y012257D02*
X027279Y012257D01*
X027152Y012755D02*
X023531Y012755D01*
X023438Y012663D02*
X024088Y013313D01*
X024088Y014233D01*
X023438Y014883D01*
X022519Y014883D01*
X021868Y014233D01*
X021868Y013313D01*
X022519Y012663D01*
X023438Y012663D01*
X024029Y013254D02*
X027259Y013254D01*
X027152Y013753D02*
X024088Y013753D01*
X024070Y014251D02*
X027257Y014251D01*
X027502Y014750D02*
X023571Y014750D01*
X022385Y014750D02*
X019571Y014750D01*
X020070Y014251D02*
X021887Y014251D01*
X021868Y013753D02*
X020088Y013753D01*
X020029Y013254D02*
X021928Y013254D01*
X022426Y012755D02*
X019531Y012755D01*
X018426Y012755D02*
X012328Y012755D01*
X012328Y013254D02*
X017295Y013254D01*
X017128Y013753D02*
X012328Y013753D01*
X012022Y015747D02*
X027152Y015747D01*
X027253Y016245D02*
X012088Y016245D01*
X012314Y016744D02*
X027724Y016744D01*
X027284Y015248D02*
X018702Y015248D01*
X015644Y012373D02*
X015644Y011645D01*
X015644Y011645D01*
X015644Y012373D01*
X015644Y012257D02*
X015644Y012257D01*
X015644Y011758D02*
X015644Y011758D01*
X015140Y012257D02*
X014566Y012257D01*
X015478Y010773D02*
X023978Y010773D01*
X024978Y014273D01*
X028478Y014773D01*
X027775Y014773D02*
X027774Y014773D01*
X027502Y014773D01*
X027774Y014773D01*
X027775Y014773D01*
X032157Y011758D02*
X035168Y011758D01*
X035258Y012257D02*
X032678Y012257D01*
X032804Y012755D02*
X035342Y012755D01*
X035342Y013254D02*
X032698Y013254D01*
X032804Y013753D02*
X035168Y013753D01*
X035168Y014057D02*
X035168Y014057D01*
X035168Y014251D02*
X032700Y014251D01*
X032804Y014750D02*
X035168Y014750D01*
X035168Y015248D02*
X032702Y015248D01*
X032804Y015747D02*
X035342Y015747D01*
X035342Y016245D02*
X032703Y016245D01*
X032328Y016744D02*
X035494Y016744D01*
X037076Y016744D02*
X038828Y016744D01*
X038828Y017242D02*
X032328Y017242D01*
X032328Y017741D02*
X038828Y017741D01*
X038828Y018239D02*
X032328Y018239D01*
X032328Y018738D02*
X038828Y018738D01*
X038828Y019236D02*
X032328Y019236D01*
X032207Y019735D02*
X038828Y019735D01*
X038828Y016245D02*
X037228Y016245D01*
X038541Y015747D02*
X038828Y015747D01*
X038828Y015248D02*
X038728Y015248D01*
X038728Y014750D02*
X038828Y014750D01*
X038828Y014251D02*
X038667Y014251D01*
X038710Y013753D02*
X038828Y013753D01*
X038828Y013254D02*
X038728Y013254D01*
X038728Y012755D02*
X038828Y012755D01*
X038828Y012257D02*
X038728Y012257D01*
X038728Y011758D02*
X038828Y011758D01*
X038828Y011260D02*
X038728Y011260D01*
X038791Y010761D02*
X038828Y010761D01*
X038828Y009764D02*
X038728Y009764D01*
X038728Y009266D02*
X038828Y009266D01*
X038828Y008767D02*
X038728Y008767D01*
X038828Y008269D02*
X038523Y008269D01*
X038828Y007770D02*
X017303Y007770D01*
X017254Y008269D02*
X035373Y008269D01*
X035168Y008767D02*
X016516Y008767D01*
X016516Y009266D02*
X035081Y009266D01*
X035171Y009764D02*
X016651Y009764D01*
X016794Y010263D02*
X035342Y010263D01*
X035164Y010761D02*
X016794Y010761D01*
X016794Y011260D02*
X035081Y011260D01*
X035285Y013427D02*
X035285Y013427D01*
X035285Y013427D01*
X023978Y024222D02*
X014391Y024222D01*
X014462Y024720D02*
X023978Y024720D01*
X023978Y025219D02*
X014462Y025219D01*
X014462Y025718D02*
X023978Y025718D01*
X023978Y026216D02*
X014462Y026216D01*
X014462Y026715D02*
X023978Y026715D01*
X023978Y027213D02*
X014462Y027213D01*
X014462Y027712D02*
X023978Y027712D01*
X023978Y028210D02*
X014462Y028210D01*
X014462Y028709D02*
X023978Y028709D01*
X023978Y029207D02*
X014462Y029207D01*
X014436Y029706D02*
X023978Y029706D01*
X023978Y030204D02*
X013994Y030204D01*
X012634Y030703D02*
X023978Y030703D01*
X023978Y031202D02*
X020590Y031202D01*
X020609Y031220D02*
X020531Y031143D01*
X020444Y031076D01*
X020349Y031021D01*
X020248Y030979D01*
X020142Y030951D01*
X020033Y030937D01*
X019979Y030937D01*
X019979Y031772D01*
X019978Y031772D01*
X019978Y030937D01*
X019924Y030937D01*
X019815Y030951D01*
X019709Y030979D01*
X019608Y031021D01*
X019513Y031076D01*
X019426Y031143D01*
X019348Y031220D01*
X019282Y031307D01*
X019227Y031402D01*
X019185Y031504D01*
X019157Y031609D01*
X019142Y031718D01*
X019142Y031773D01*
X019142Y031828D01*
X019157Y031936D01*
X019185Y032042D01*
X019227Y032144D01*
X019282Y032238D01*
X019348Y032325D01*
X019426Y032403D01*
X019513Y032470D01*
X019608Y032524D01*
X019709Y032566D01*
X019815Y032595D01*
X019924Y032609D01*
X019978Y032609D01*
X019978Y031773D01*
X019142Y031773D01*
X019978Y031773D01*
X019978Y031773D01*
X019979Y031773D01*
X019979Y031773D01*
X020815Y031773D01*
X020815Y031828D01*
X020800Y031936D01*
X020772Y032042D01*
X020730Y032144D01*
X020675Y032238D01*
X020609Y032325D01*
X020531Y032403D01*
X020444Y032470D01*
X020349Y032524D01*
X020248Y032566D01*
X020142Y032595D01*
X020033Y032609D01*
X019979Y032609D01*
X019979Y031773D01*
X020815Y031773D01*
X020815Y031718D01*
X020800Y031609D01*
X020772Y031504D01*
X020730Y031402D01*
X020675Y031307D01*
X020609Y031220D01*
X020812Y031700D02*
X023978Y031700D01*
X023978Y032199D02*
X020698Y032199D01*
X019979Y032199D02*
X019978Y032199D01*
X019979Y031700D02*
X019978Y031700D01*
X019979Y031202D02*
X019978Y031202D01*
X019367Y031202D02*
X012727Y031202D01*
X012676Y031700D02*
X019145Y031700D01*
X019259Y032199D02*
X012469Y032199D01*
X012000Y032697D02*
X023978Y032697D01*
X023978Y033196D02*
X000758Y033196D01*
X000758Y033694D02*
X001713Y033694D01*
X001084Y034193D02*
X000758Y034193D01*
X000758Y034691D02*
X000823Y034691D01*
X000778Y035688D02*
X000758Y035688D01*
X000758Y036187D02*
X000985Y036187D01*
X000758Y036686D02*
X001425Y036686D01*
X000758Y037184D02*
X023978Y037184D01*
X023978Y036686D02*
X014546Y036686D01*
X014788Y036187D02*
X019290Y036187D01*
X019282Y036175D02*
X019348Y036262D01*
X019426Y036340D01*
X019513Y036407D01*
X019608Y036461D01*
X019709Y036503D01*
X019815Y036532D01*
X019924Y036546D01*
X019978Y036546D01*
X019978Y035710D01*
X019142Y035710D01*
X019142Y035765D01*
X019157Y035873D01*
X019185Y035979D01*
X019227Y036081D01*
X019282Y036175D01*
X019142Y035710D02*
X019978Y035710D01*
X019978Y035710D01*
X019979Y035710D01*
X019979Y035710D01*
X020815Y035710D01*
X020815Y035765D01*
X020800Y035873D01*
X020772Y035979D01*
X020730Y036081D01*
X020675Y036175D01*
X020609Y036262D01*
X020531Y036340D01*
X020444Y036407D01*
X020349Y036461D01*
X020248Y036503D01*
X020142Y036532D01*
X020033Y036546D01*
X019979Y036546D01*
X019979Y035710D01*
X020815Y035710D01*
X020815Y035655D01*
X020800Y035546D01*
X020772Y035441D01*
X020730Y035339D01*
X020675Y035244D01*
X020609Y035157D01*
X020531Y035080D01*
X020444Y035013D01*
X020349Y034958D01*
X020248Y034916D01*
X020142Y034888D01*
X020033Y034874D01*
X019979Y034874D01*
X019979Y035709D01*
X019978Y035709D01*
X019978Y034874D01*
X019924Y034874D01*
X019815Y034888D01*
X019709Y034916D01*
X019608Y034958D01*
X019513Y035013D01*
X019426Y035080D01*
X019348Y035157D01*
X019282Y035244D01*
X019227Y035339D01*
X019185Y035441D01*
X019157Y035546D01*
X019142Y035655D01*
X019142Y035710D01*
X019142Y035688D02*
X014875Y035688D01*
X014875Y035190D02*
X019323Y035190D01*
X019978Y035190D02*
X019979Y035190D01*
X019979Y035688D02*
X019978Y035688D01*
X019979Y036187D02*
X019978Y036187D01*
X020666Y036187D02*
X023978Y036187D01*
X023978Y035688D02*
X020815Y035688D01*
X020633Y035190D02*
X023978Y035190D01*
X023978Y034691D02*
X014788Y034691D01*
X014788Y034193D02*
X023978Y034193D01*
X023978Y033694D02*
X014485Y033694D01*
X013032Y033694D02*
X011744Y033694D01*
X012373Y034193D02*
X012728Y034193D01*
X012728Y034691D02*
X012634Y034691D01*
X012728Y035190D02*
X012741Y035190D01*
X012773Y035688D02*
X012679Y035688D01*
X012762Y036187D02*
X012471Y036187D01*
X012845Y036387D02*
X012845Y036387D01*
X012845Y036387D01*
X013260Y036686D02*
X012032Y036686D01*
X013345Y036721D02*
X013345Y036721D01*
X009321Y032697D02*
X000758Y032697D01*
X000758Y032199D02*
X007077Y032199D01*
X009345Y028976D02*
X009345Y028976D01*
X009234Y028709D02*
X007507Y028709D01*
X008064Y027213D02*
X009228Y027213D01*
X009228Y027348D02*
X009228Y027348D01*
X009228Y027712D02*
X000758Y027712D01*
X000758Y028210D02*
X009303Y028210D01*
X009228Y028391D02*
X009228Y028391D01*
X009228Y028391D01*
X007634Y023723D02*
X000758Y023723D01*
X000758Y023225D02*
X009878Y023225D01*
X011859Y022228D02*
X012442Y022228D01*
X001665Y024222D02*
X000758Y024222D01*
X000758Y024720D02*
X001065Y024720D01*
X000815Y025219D02*
X000758Y025219D01*
X000785Y026216D02*
X000758Y026216D01*
X000758Y026715D02*
X001001Y026715D01*
X000758Y027213D02*
X001473Y027213D01*
X001751Y028709D02*
X000758Y028709D01*
X000758Y029207D02*
X001136Y029207D01*
X000882Y029706D02*
X000758Y029706D01*
X000758Y030204D02*
X000791Y030204D01*
X000758Y030703D02*
X000845Y030703D01*
X000758Y031202D02*
X001057Y031202D01*
X000758Y031700D02*
X001513Y031700D01*
D23*
X002541Y030273D02*
X006478Y030273D01*
X010978Y031273D01*
X010978Y035273D02*
X006478Y035273D01*
X002478Y035273D01*
X002478Y025773D02*
X006478Y025773D01*
X010978Y024773D01*
D24*
X010978Y020773D02*
X006478Y020773D01*
X002541Y020773D01*
X002478Y020773D02*
X002478Y015773D01*
X004478Y015773D01*
M02*
