G75*
G70*
%OFA0B0*%
%FSLAX24Y24*%
%IPPOS*%
%LPD*%
%AMOC8*
5,1,8,0,0,1.08239X$1,22.5*
%
%ADD10C,0.1800*%
%ADD11C,0.0864*%
%ADD12OC8,0.0864*%
%ADD13C,0.0173*%
%ADD14C,0.0960*%
%ADD15C,0.1890*%
%ADD16C,0.1047*%
D10*
X024218Y010323D02*
X024218Y011223D01*
X026383Y011223D02*
X026383Y010323D01*
X028548Y010323D02*
X028548Y011223D01*
X033218Y011223D02*
X033218Y010323D01*
X035383Y010323D02*
X035383Y011223D01*
X037548Y011223D02*
X037548Y010323D01*
D11*
X008599Y012773D02*
X008167Y012773D01*
X008167Y013773D02*
X008599Y013773D01*
X008599Y014773D02*
X008167Y014773D01*
X008167Y015773D02*
X008599Y015773D01*
X011167Y015773D02*
X011599Y015773D01*
X011599Y014773D02*
X011167Y014773D01*
X011167Y013773D02*
X011599Y013773D01*
X011599Y012773D02*
X011167Y012773D01*
X006815Y024773D02*
X006383Y024773D01*
X006383Y025773D02*
X006815Y025773D01*
X006815Y026773D02*
X006383Y026773D01*
X006383Y027773D02*
X006815Y027773D01*
X003383Y027773D02*
X002951Y027773D01*
X002951Y026773D02*
X003383Y026773D01*
X003383Y025773D02*
X002951Y025773D01*
X002951Y024773D02*
X003383Y024773D01*
D12*
X009383Y024773D03*
X012383Y024773D03*
X012383Y028773D03*
X009383Y028773D03*
X016883Y013773D03*
X020883Y013773D03*
X028883Y016273D03*
X032883Y016273D03*
D13*
X003836Y030015D02*
X003749Y029928D01*
X003546Y030129D01*
X003545Y030414D01*
X003746Y030617D01*
X004031Y030618D01*
X004234Y030417D01*
X004235Y030132D01*
X004034Y029929D01*
X003749Y029928D01*
X003802Y030057D01*
X003675Y030184D01*
X003674Y030361D01*
X003801Y030488D01*
X003978Y030489D01*
X004105Y030362D01*
X004106Y030185D01*
X003979Y030058D01*
X003802Y030057D01*
X003856Y030187D01*
X003805Y030238D01*
X003804Y030307D01*
X003855Y030358D01*
X003924Y030359D01*
X003975Y030308D01*
X003976Y030239D01*
X003925Y030188D01*
X003856Y030187D01*
X002331Y030015D02*
X002244Y029928D01*
X002042Y030130D01*
X002041Y030415D01*
X002243Y030617D01*
X002528Y030618D01*
X002730Y030416D01*
X002731Y030131D01*
X002529Y029929D01*
X002244Y029928D01*
X002298Y030057D01*
X002171Y030184D01*
X002170Y030361D01*
X002297Y030488D01*
X002474Y030489D01*
X002601Y030362D01*
X002602Y030185D01*
X002475Y030058D01*
X002298Y030057D01*
X002352Y030187D01*
X002301Y030238D01*
X002300Y030307D01*
X002351Y030358D01*
X002420Y030359D01*
X002471Y030308D01*
X002472Y030239D01*
X002421Y030188D01*
X002352Y030187D01*
X002324Y034015D02*
X002237Y033928D01*
X002035Y034130D01*
X002034Y034415D01*
X002236Y034617D01*
X002521Y034618D01*
X002723Y034416D01*
X002724Y034131D01*
X002522Y033929D01*
X002237Y033928D01*
X002291Y034057D01*
X002164Y034184D01*
X002163Y034361D01*
X002290Y034488D01*
X002467Y034489D01*
X002594Y034362D01*
X002595Y034185D01*
X002468Y034058D01*
X002291Y034057D01*
X002345Y034187D01*
X002294Y034238D01*
X002293Y034307D01*
X002344Y034358D01*
X002413Y034359D01*
X002464Y034308D01*
X002465Y034239D01*
X002414Y034188D01*
X002345Y034187D01*
X003822Y034015D02*
X003735Y033928D01*
X003532Y034129D01*
X003531Y034414D01*
X003732Y034617D01*
X004017Y034618D01*
X004220Y034417D01*
X004221Y034132D01*
X004020Y033929D01*
X003735Y033928D01*
X003788Y034057D01*
X003661Y034184D01*
X003660Y034361D01*
X003787Y034488D01*
X003964Y034489D01*
X004091Y034362D01*
X004092Y034185D01*
X003965Y034058D01*
X003788Y034057D01*
X003842Y034187D01*
X003791Y034238D01*
X003790Y034307D01*
X003841Y034358D01*
X003910Y034359D01*
X003961Y034308D01*
X003962Y034239D01*
X003911Y034188D01*
X003842Y034187D01*
D14*
X003383Y036033D02*
X003383Y036513D01*
X002383Y036513D02*
X002383Y036033D01*
X001383Y036033D02*
X001383Y036513D01*
D15*
X028883Y035273D03*
X028883Y031273D03*
X028883Y024773D03*
X028883Y020773D03*
D16*
X033383Y020773D03*
X037320Y020773D03*
X037320Y025773D03*
X033383Y025773D03*
X033383Y030273D03*
X037320Y030273D03*
X037320Y035273D03*
X033383Y035273D03*
X019883Y035710D03*
X019883Y031773D03*
X011383Y032273D03*
X011383Y036210D03*
M02*
