%
M48
M72
T01C0.0320
T02C0.0394
T03C0.0400
T04C0.0472
T05C0.0787
%
T01
X8383Y12773
X8383Y13773
X8383Y14773
X8383Y15773
X11383Y15773
X11383Y14773
X11383Y13773
X11383Y12773
X16883Y13773
X20883Y13773
X28883Y16273
X32883Y16273
X12383Y24773
X9383Y24773
X6383Y24773
X6383Y25773
X6383Y26773
X6383Y27773
X9383Y28773
X12383Y28773
X3890Y30273
X2386Y30273
X3383Y27773
X3383Y26773
X3383Y25773
X3383Y24773
X3876Y34273
X2379Y34273
T02
X24218Y10773
X26383Y10773
X28548Y10773
X33218Y10773
X35383Y10773
X37548Y10773
T03
X3383Y36273
X2383Y36273
X1383Y36273
T04
X11383Y36210
X11383Y32273
X19883Y31773
X19883Y35710
X33383Y35273
X37320Y35273
X37320Y30273
X33383Y30273
X33383Y25773
X37320Y25773
X37320Y20773
X33383Y20773
T05
X28883Y20773
X28883Y24773
X28883Y31273
X28883Y35273
M30
