G75*
G70*
%OFA0B0*%
%FSLAX24Y24*%
%IPPOS*%
%LPD*%
%AMOC8*
5,1,8,0,0,1.08239X$1,22.5*
%
%ADD10C,0.0000*%
%ADD11C,0.0040*%
%ADD12C,0.0050*%
%ADD13C,0.1500*%
%ADD14C,0.0720*%
%ADD15OC8,0.0720*%
%ADD16C,0.0144*%
%ADD17C,0.0800*%
%ADD18C,0.1575*%
%ADD19C,0.0872*%
%ADD20C,0.0200*%
%ADD21C,0.0160*%
%ADD22C,0.0500*%
%ADD23C,0.1000*%
%ADD24C,0.1700*%
%ADD25C,0.2000*%
%ADD26C,0.1900*%
D10*
X000383Y006773D02*
X000383Y038269D01*
X039753Y038269D01*
X039753Y006773D01*
X000383Y006773D01*
D11*
X013403Y033699D02*
X013750Y033699D01*
X013923Y033873D01*
X013750Y034046D01*
X013403Y034046D01*
X013576Y034301D02*
X013663Y034215D01*
X013836Y034215D01*
X013923Y034301D01*
X013923Y034562D01*
X013836Y034730D02*
X013923Y034817D01*
X013923Y035077D01*
X013923Y035246D02*
X013923Y035593D01*
X013923Y035762D02*
X013576Y036109D01*
X013489Y036109D01*
X013403Y036022D01*
X013403Y035848D01*
X013489Y035762D01*
X013403Y035419D02*
X013923Y035419D01*
X013923Y035762D02*
X013923Y036109D01*
X013750Y036277D02*
X013923Y036451D01*
X013750Y036624D01*
X013403Y036624D01*
X013403Y036277D02*
X013750Y036277D01*
X013403Y035419D02*
X013576Y035246D01*
X013576Y035077D02*
X013576Y034817D01*
X013663Y034730D01*
X013836Y034730D01*
X013576Y034562D02*
X013576Y034301D01*
X021843Y035293D02*
X021843Y035553D01*
X021929Y035640D01*
X022276Y035640D01*
X022363Y035553D01*
X022363Y035293D01*
X021843Y035293D01*
X021929Y035809D02*
X021843Y035895D01*
X021843Y036069D01*
X021929Y036155D01*
X022103Y036324D02*
X022103Y036671D01*
X022276Y036155D02*
X022363Y036069D01*
X022363Y035895D01*
X022276Y035809D01*
X021929Y035809D01*
D12*
X024021Y010970D02*
X024414Y010970D01*
X024414Y010576D01*
X024414Y009592D01*
X024808Y009592D01*
X024808Y008017D01*
X024021Y008017D01*
X023233Y008017D01*
X023233Y003096D01*
X023430Y003096D01*
X023430Y001521D01*
X023233Y001521D01*
X023233Y003096D01*
X023233Y001521D02*
X023233Y000143D01*
X029533Y000143D01*
X029533Y001521D01*
X029336Y001521D01*
X029336Y003096D01*
X029533Y003096D01*
X029533Y001521D01*
X028942Y000734D02*
X028942Y007426D01*
X023824Y007426D01*
X023824Y000734D01*
X028942Y000734D01*
X027761Y002308D02*
X025005Y002308D01*
X025399Y002308D02*
X025401Y002370D01*
X025407Y002433D01*
X025417Y002494D01*
X025431Y002555D01*
X025448Y002615D01*
X025469Y002674D01*
X025495Y002731D01*
X025523Y002786D01*
X025555Y002840D01*
X025591Y002891D01*
X025629Y002941D01*
X025671Y002987D01*
X025715Y003031D01*
X025763Y003072D01*
X025812Y003110D01*
X025864Y003144D01*
X025918Y003175D01*
X025974Y003203D01*
X026032Y003227D01*
X026091Y003248D01*
X026151Y003264D01*
X026212Y003277D01*
X026274Y003286D01*
X026336Y003291D01*
X026399Y003292D01*
X026461Y003289D01*
X026523Y003282D01*
X026585Y003271D01*
X026645Y003256D01*
X026705Y003238D01*
X026763Y003216D01*
X026820Y003190D01*
X026875Y003160D01*
X026928Y003127D01*
X026979Y003091D01*
X027027Y003052D01*
X027073Y003009D01*
X027116Y002964D01*
X027156Y002916D01*
X027193Y002866D01*
X027227Y002813D01*
X027258Y002759D01*
X027284Y002703D01*
X027308Y002645D01*
X027327Y002585D01*
X027343Y002525D01*
X027355Y002463D01*
X027363Y002402D01*
X027367Y002339D01*
X027367Y002277D01*
X027363Y002214D01*
X027355Y002153D01*
X027343Y002091D01*
X027327Y002031D01*
X027308Y001971D01*
X027284Y001913D01*
X027258Y001857D01*
X027227Y001803D01*
X027193Y001750D01*
X027156Y001700D01*
X027116Y001652D01*
X027073Y001607D01*
X027027Y001564D01*
X026979Y001525D01*
X026928Y001489D01*
X026875Y001456D01*
X026820Y001426D01*
X026763Y001400D01*
X026705Y001378D01*
X026645Y001360D01*
X026585Y001345D01*
X026523Y001334D01*
X026461Y001327D01*
X026399Y001324D01*
X026336Y001325D01*
X026274Y001330D01*
X026212Y001339D01*
X026151Y001352D01*
X026091Y001368D01*
X026032Y001389D01*
X025974Y001413D01*
X025918Y001441D01*
X025864Y001472D01*
X025812Y001506D01*
X025763Y001544D01*
X025715Y001585D01*
X025671Y001629D01*
X025629Y001675D01*
X025591Y001725D01*
X025555Y001776D01*
X025523Y001830D01*
X025495Y001885D01*
X025469Y001942D01*
X025448Y002001D01*
X025431Y002061D01*
X025417Y002122D01*
X025407Y002183D01*
X025401Y002246D01*
X025399Y002308D01*
X025596Y002308D02*
X025598Y002364D01*
X025604Y002419D01*
X025614Y002473D01*
X025627Y002527D01*
X025645Y002580D01*
X025666Y002631D01*
X025690Y002681D01*
X025718Y002729D01*
X025750Y002775D01*
X025784Y002819D01*
X025822Y002860D01*
X025862Y002898D01*
X025905Y002933D01*
X025950Y002965D01*
X025998Y002994D01*
X026047Y003020D01*
X026098Y003042D01*
X026150Y003060D01*
X026204Y003074D01*
X026259Y003085D01*
X026314Y003092D01*
X026369Y003095D01*
X026425Y003094D01*
X026480Y003089D01*
X026535Y003080D01*
X026589Y003068D01*
X026642Y003051D01*
X026694Y003031D01*
X026744Y003007D01*
X026792Y002980D01*
X026839Y002950D01*
X026883Y002916D01*
X026925Y002879D01*
X026963Y002839D01*
X027000Y002797D01*
X027033Y002752D01*
X027062Y002706D01*
X027089Y002657D01*
X027111Y002606D01*
X027131Y002554D01*
X027146Y002500D01*
X027158Y002446D01*
X027166Y002391D01*
X027170Y002336D01*
X027170Y002280D01*
X027166Y002225D01*
X027158Y002170D01*
X027146Y002116D01*
X027131Y002062D01*
X027111Y002010D01*
X027089Y001959D01*
X027062Y001910D01*
X027033Y001864D01*
X027000Y001819D01*
X026963Y001777D01*
X026925Y001737D01*
X026883Y001700D01*
X026839Y001666D01*
X026792Y001636D01*
X026744Y001609D01*
X026694Y001585D01*
X026642Y001565D01*
X026589Y001548D01*
X026535Y001536D01*
X026480Y001527D01*
X026425Y001522D01*
X026369Y001521D01*
X026314Y001524D01*
X026259Y001531D01*
X026204Y001542D01*
X026150Y001556D01*
X026098Y001574D01*
X026047Y001596D01*
X025998Y001622D01*
X025950Y001651D01*
X025905Y001683D01*
X025862Y001718D01*
X025822Y001756D01*
X025784Y001797D01*
X025750Y001841D01*
X025718Y001887D01*
X025690Y001935D01*
X025666Y001985D01*
X025645Y002036D01*
X025627Y002089D01*
X025614Y002143D01*
X025604Y002197D01*
X025598Y002252D01*
X025596Y002308D01*
X026383Y003686D02*
X026383Y000930D01*
X029533Y003096D02*
X029533Y008017D01*
X028745Y008017D01*
X027958Y008017D01*
X027958Y009592D01*
X028351Y009592D01*
X028351Y010576D01*
X028745Y010576D01*
X028745Y008017D01*
X027958Y008017D02*
X026974Y008017D01*
X026974Y009592D01*
X026580Y009592D01*
X026580Y010576D01*
X026580Y010970D01*
X026186Y010970D01*
X026186Y010576D01*
X026186Y009592D01*
X025792Y009592D01*
X025792Y008017D01*
X024808Y008017D01*
X024021Y008017D02*
X024021Y010576D01*
X024414Y010576D01*
X024414Y010379D01*
X024021Y010576D02*
X024021Y010970D01*
X026186Y010576D02*
X026580Y010576D01*
X028351Y010576D02*
X028351Y010970D01*
X028745Y010970D01*
X028745Y010576D01*
X026974Y008017D02*
X025792Y008017D01*
X032233Y008017D02*
X032233Y003096D01*
X032430Y003096D01*
X032430Y001521D01*
X032233Y001521D01*
X032233Y000143D01*
X038533Y000143D01*
X038533Y001521D01*
X038336Y001521D01*
X038336Y003096D01*
X038533Y003096D01*
X038533Y008017D01*
X037745Y008017D01*
X037745Y010576D01*
X037351Y010576D01*
X037351Y009592D01*
X036958Y009592D01*
X036958Y008017D01*
X037745Y008017D01*
X037942Y007426D02*
X032824Y007426D01*
X032824Y000734D01*
X037942Y000734D01*
X037942Y007426D01*
X036958Y008017D02*
X035974Y008017D01*
X035974Y009592D01*
X035580Y009592D01*
X035580Y010576D01*
X035186Y010576D01*
X035186Y009592D01*
X034792Y009592D01*
X034792Y008017D01*
X035974Y008017D01*
X034792Y008017D02*
X033808Y008017D01*
X033808Y009592D01*
X033414Y009592D01*
X033414Y010576D01*
X033021Y010576D01*
X033021Y008017D01*
X032233Y008017D01*
X033021Y008017D02*
X033808Y008017D01*
X033414Y010576D02*
X033414Y010970D01*
X033021Y010970D01*
X033021Y010576D01*
X035186Y010576D02*
X035186Y010970D01*
X035580Y010970D01*
X035580Y010576D01*
X037351Y010576D02*
X037351Y010379D01*
X037351Y010576D02*
X037351Y010970D01*
X037745Y010970D01*
X037745Y010576D01*
X035383Y003686D02*
X035383Y000930D01*
X034399Y002308D02*
X034401Y002370D01*
X034407Y002433D01*
X034417Y002494D01*
X034431Y002555D01*
X034448Y002615D01*
X034469Y002674D01*
X034495Y002731D01*
X034523Y002786D01*
X034555Y002840D01*
X034591Y002891D01*
X034629Y002941D01*
X034671Y002987D01*
X034715Y003031D01*
X034763Y003072D01*
X034812Y003110D01*
X034864Y003144D01*
X034918Y003175D01*
X034974Y003203D01*
X035032Y003227D01*
X035091Y003248D01*
X035151Y003264D01*
X035212Y003277D01*
X035274Y003286D01*
X035336Y003291D01*
X035399Y003292D01*
X035461Y003289D01*
X035523Y003282D01*
X035585Y003271D01*
X035645Y003256D01*
X035705Y003238D01*
X035763Y003216D01*
X035820Y003190D01*
X035875Y003160D01*
X035928Y003127D01*
X035979Y003091D01*
X036027Y003052D01*
X036073Y003009D01*
X036116Y002964D01*
X036156Y002916D01*
X036193Y002866D01*
X036227Y002813D01*
X036258Y002759D01*
X036284Y002703D01*
X036308Y002645D01*
X036327Y002585D01*
X036343Y002525D01*
X036355Y002463D01*
X036363Y002402D01*
X036367Y002339D01*
X036367Y002277D01*
X036363Y002214D01*
X036355Y002153D01*
X036343Y002091D01*
X036327Y002031D01*
X036308Y001971D01*
X036284Y001913D01*
X036258Y001857D01*
X036227Y001803D01*
X036193Y001750D01*
X036156Y001700D01*
X036116Y001652D01*
X036073Y001607D01*
X036027Y001564D01*
X035979Y001525D01*
X035928Y001489D01*
X035875Y001456D01*
X035820Y001426D01*
X035763Y001400D01*
X035705Y001378D01*
X035645Y001360D01*
X035585Y001345D01*
X035523Y001334D01*
X035461Y001327D01*
X035399Y001324D01*
X035336Y001325D01*
X035274Y001330D01*
X035212Y001339D01*
X035151Y001352D01*
X035091Y001368D01*
X035032Y001389D01*
X034974Y001413D01*
X034918Y001441D01*
X034864Y001472D01*
X034812Y001506D01*
X034763Y001544D01*
X034715Y001585D01*
X034671Y001629D01*
X034629Y001675D01*
X034591Y001725D01*
X034555Y001776D01*
X034523Y001830D01*
X034495Y001885D01*
X034469Y001942D01*
X034448Y002001D01*
X034431Y002061D01*
X034417Y002122D01*
X034407Y002183D01*
X034401Y002246D01*
X034399Y002308D01*
X034005Y002308D02*
X036761Y002308D01*
X034596Y002308D02*
X034598Y002364D01*
X034604Y002419D01*
X034614Y002473D01*
X034627Y002527D01*
X034645Y002580D01*
X034666Y002631D01*
X034690Y002681D01*
X034718Y002729D01*
X034750Y002775D01*
X034784Y002819D01*
X034822Y002860D01*
X034862Y002898D01*
X034905Y002933D01*
X034950Y002965D01*
X034998Y002994D01*
X035047Y003020D01*
X035098Y003042D01*
X035150Y003060D01*
X035204Y003074D01*
X035259Y003085D01*
X035314Y003092D01*
X035369Y003095D01*
X035425Y003094D01*
X035480Y003089D01*
X035535Y003080D01*
X035589Y003068D01*
X035642Y003051D01*
X035694Y003031D01*
X035744Y003007D01*
X035792Y002980D01*
X035839Y002950D01*
X035883Y002916D01*
X035925Y002879D01*
X035963Y002839D01*
X036000Y002797D01*
X036033Y002752D01*
X036062Y002706D01*
X036089Y002657D01*
X036111Y002606D01*
X036131Y002554D01*
X036146Y002500D01*
X036158Y002446D01*
X036166Y002391D01*
X036170Y002336D01*
X036170Y002280D01*
X036166Y002225D01*
X036158Y002170D01*
X036146Y002116D01*
X036131Y002062D01*
X036111Y002010D01*
X036089Y001959D01*
X036062Y001910D01*
X036033Y001864D01*
X036000Y001819D01*
X035963Y001777D01*
X035925Y001737D01*
X035883Y001700D01*
X035839Y001666D01*
X035792Y001636D01*
X035744Y001609D01*
X035694Y001585D01*
X035642Y001565D01*
X035589Y001548D01*
X035535Y001536D01*
X035480Y001527D01*
X035425Y001522D01*
X035369Y001521D01*
X035314Y001524D01*
X035259Y001531D01*
X035204Y001542D01*
X035150Y001556D01*
X035098Y001574D01*
X035047Y001596D01*
X034998Y001622D01*
X034950Y001651D01*
X034905Y001683D01*
X034862Y001718D01*
X034822Y001756D01*
X034784Y001797D01*
X034750Y001841D01*
X034718Y001887D01*
X034690Y001935D01*
X034666Y001985D01*
X034645Y002036D01*
X034627Y002089D01*
X034614Y002143D01*
X034604Y002197D01*
X034598Y002252D01*
X034596Y002308D01*
X032233Y003096D02*
X032233Y001521D01*
X038533Y001521D02*
X038533Y003096D01*
D13*
X037548Y010323D02*
X037548Y011223D01*
X035383Y011223D02*
X035383Y010323D01*
X033218Y010323D02*
X033218Y011223D01*
X028548Y011223D02*
X028548Y010323D01*
X026383Y010323D02*
X026383Y011223D01*
X026383Y010773D02*
X026383Y011773D01*
X024218Y011223D02*
X024218Y010323D01*
D14*
X011599Y012773D02*
X011167Y012773D01*
X011167Y013773D02*
X011599Y013773D01*
X011599Y014773D02*
X011167Y014773D01*
X011167Y015773D02*
X011599Y015773D01*
X008599Y015773D02*
X008167Y015773D01*
X008167Y014773D02*
X008599Y014773D01*
X008599Y013773D02*
X008167Y013773D01*
X008167Y012773D02*
X008599Y012773D01*
X006815Y024773D02*
X006383Y024773D01*
X006383Y025773D02*
X006815Y025773D01*
X006815Y026773D02*
X006383Y026773D01*
X006383Y027773D02*
X006815Y027773D01*
X003383Y027773D02*
X002951Y027773D01*
X002951Y026773D02*
X003383Y026773D01*
X003383Y025773D02*
X002951Y025773D01*
X002951Y024773D02*
X003383Y024773D01*
D15*
X009383Y024773D03*
X012383Y024773D03*
X012383Y028773D03*
X009383Y028773D03*
X016883Y013773D03*
X020883Y013773D03*
X028883Y016273D03*
X032883Y016273D03*
D16*
X003845Y030057D02*
X003773Y029985D01*
X003603Y030153D01*
X003602Y030390D01*
X003770Y030560D01*
X004007Y030561D01*
X004177Y030393D01*
X004178Y030156D01*
X004010Y029986D01*
X003773Y029985D01*
X003817Y030093D01*
X003711Y030199D01*
X003710Y030346D01*
X003816Y030452D01*
X003963Y030453D01*
X004069Y030347D01*
X004070Y030200D01*
X003964Y030094D01*
X003817Y030093D01*
X003862Y030201D01*
X003819Y030244D01*
X003818Y030301D01*
X003861Y030344D01*
X003918Y030345D01*
X003961Y030302D01*
X003962Y030245D01*
X003919Y030202D01*
X003862Y030201D01*
X002340Y030057D02*
X002268Y029985D01*
X002099Y030154D01*
X002098Y030391D01*
X002267Y030560D01*
X002504Y030561D01*
X002673Y030392D01*
X002674Y030155D01*
X002505Y029986D01*
X002268Y029985D01*
X002313Y030093D01*
X002207Y030199D01*
X002206Y030346D01*
X002312Y030452D01*
X002459Y030453D01*
X002565Y030347D01*
X002566Y030200D01*
X002460Y030094D01*
X002313Y030093D01*
X002358Y030201D01*
X002315Y030244D01*
X002314Y030301D01*
X002357Y030344D01*
X002414Y030345D01*
X002457Y030302D01*
X002458Y030245D01*
X002415Y030202D01*
X002358Y030201D01*
X002333Y034057D02*
X002261Y033985D01*
X002092Y034154D01*
X002091Y034391D01*
X002260Y034560D01*
X002497Y034561D01*
X002666Y034392D01*
X002667Y034155D01*
X002498Y033986D01*
X002261Y033985D01*
X002306Y034093D01*
X002200Y034199D01*
X002199Y034346D01*
X002305Y034452D01*
X002452Y034453D01*
X002558Y034347D01*
X002559Y034200D01*
X002453Y034094D01*
X002306Y034093D01*
X002351Y034201D01*
X002308Y034244D01*
X002307Y034301D01*
X002350Y034344D01*
X002407Y034345D01*
X002450Y034302D01*
X002451Y034245D01*
X002408Y034202D01*
X002351Y034201D01*
X003831Y034057D02*
X003759Y033985D01*
X003589Y034153D01*
X003588Y034390D01*
X003756Y034560D01*
X003993Y034561D01*
X004163Y034393D01*
X004164Y034156D01*
X003996Y033986D01*
X003759Y033985D01*
X003803Y034093D01*
X003697Y034199D01*
X003696Y034346D01*
X003802Y034452D01*
X003949Y034453D01*
X004055Y034347D01*
X004056Y034200D01*
X003950Y034094D01*
X003803Y034093D01*
X003848Y034201D01*
X003805Y034244D01*
X003804Y034301D01*
X003847Y034344D01*
X003904Y034345D01*
X003947Y034302D01*
X003948Y034245D01*
X003905Y034202D01*
X003848Y034201D01*
D17*
X003383Y036033D02*
X003383Y036513D01*
X002383Y036513D02*
X002383Y036033D01*
X001383Y036033D02*
X001383Y036513D01*
D18*
X028883Y035273D03*
X028883Y031273D03*
X028883Y024773D03*
X028883Y020773D03*
D19*
X033383Y020773D03*
X037320Y020773D03*
X037320Y025773D03*
X033383Y025773D03*
X033383Y030273D03*
X037320Y030273D03*
X037320Y035273D03*
X033383Y035273D03*
X019883Y035710D03*
X019883Y031773D03*
X011383Y032273D03*
X011383Y036210D03*
D20*
X006383Y027773D02*
X005883Y027773D01*
X005383Y027273D01*
X005383Y025773D01*
X005383Y014773D01*
X008383Y014773D01*
X008383Y013773D02*
X010133Y013773D01*
X010133Y012273D01*
X010633Y011773D01*
X016883Y011773D01*
X016883Y013773D01*
X012633Y013773D02*
X012633Y024523D01*
X012383Y024773D01*
X012383Y026773D01*
X006383Y026773D01*
X006383Y025773D02*
X005383Y025773D01*
X006383Y024773D02*
X009383Y024773D01*
X009383Y017773D01*
X011383Y015773D01*
X011383Y013773D02*
X012633Y013773D01*
D21*
X003383Y025773D02*
X002383Y025773D01*
X001883Y026273D01*
X001883Y028773D01*
X002383Y029273D01*
X003383Y029273D01*
X003883Y029773D01*
X003883Y030266D01*
X003890Y030273D01*
D22*
X004533Y021773D02*
X001033Y021773D01*
X001033Y007423D01*
X022558Y007423D01*
X022558Y008151D01*
X022661Y008399D01*
X022851Y008589D01*
X023099Y008692D01*
X023346Y008692D01*
X023346Y009572D01*
X023278Y009656D01*
X023210Y009766D01*
X023154Y009882D01*
X023111Y010004D01*
X023082Y010130D01*
X023068Y010258D01*
X023068Y010773D01*
X023346Y010773D01*
X023346Y010773D01*
X023068Y010773D01*
X023068Y011287D01*
X023082Y011416D01*
X023111Y011542D01*
X023154Y011664D01*
X023210Y011780D01*
X023278Y011889D01*
X023359Y011990D01*
X023450Y012082D01*
X023551Y012162D01*
X023660Y012231D01*
X023777Y012287D01*
X023899Y012330D01*
X024025Y012358D01*
X024153Y012373D01*
X024217Y012373D01*
X024217Y011645D01*
X024218Y011645D01*
X024218Y012373D01*
X024282Y012373D01*
X024295Y012371D01*
X023280Y014401D01*
X022983Y014698D01*
X022752Y015097D01*
X022633Y015542D01*
X022633Y031503D01*
X022752Y031948D01*
X022983Y032347D01*
X023308Y032673D01*
X023707Y032904D01*
X024153Y033023D01*
X024613Y033023D01*
X024800Y032973D01*
X029107Y032973D01*
X029539Y032857D01*
X029927Y032633D01*
X030243Y032317D01*
X030467Y031929D01*
X030583Y031497D01*
X030583Y031049D01*
X030467Y030617D01*
X030243Y030229D01*
X029927Y029913D01*
X029539Y029689D01*
X029107Y029573D01*
X026133Y029573D01*
X026133Y015851D01*
X027798Y012521D01*
X027969Y012621D01*
X028351Y012723D01*
X028746Y012723D01*
X029127Y012621D01*
X029469Y012423D01*
X029749Y012144D01*
X029946Y011802D01*
X030048Y011420D01*
X030048Y010125D01*
X029946Y009744D01*
X029749Y009402D01*
X029469Y009123D01*
X029420Y009094D01*
X029420Y008692D01*
X029667Y008692D01*
X029915Y008589D01*
X030105Y008399D01*
X030208Y008151D01*
X030208Y007423D01*
X031558Y007423D01*
X031558Y008151D01*
X031661Y008399D01*
X031851Y008589D01*
X032099Y008692D01*
X032346Y008692D01*
X032346Y009094D01*
X032297Y009123D01*
X032017Y009402D01*
X031820Y009744D01*
X031718Y010125D01*
X031718Y011420D01*
X031820Y011802D01*
X032017Y012144D01*
X032297Y012423D01*
X032639Y012621D01*
X033020Y012723D01*
X033415Y012723D01*
X033797Y012621D01*
X034139Y012423D01*
X034300Y012261D01*
X034462Y012423D01*
X034804Y012621D01*
X035185Y012723D01*
X035580Y012723D01*
X035962Y012621D01*
X036304Y012423D01*
X036583Y012144D01*
X036679Y011978D01*
X036689Y011990D01*
X036781Y012082D01*
X036882Y012162D01*
X036991Y012231D01*
X037108Y012287D01*
X037229Y012330D01*
X037355Y012358D01*
X037484Y012373D01*
X037548Y012373D01*
X037548Y011645D01*
X037549Y011645D01*
X037549Y012373D01*
X037613Y012373D01*
X037741Y012358D01*
X037867Y012330D01*
X037989Y012287D01*
X038105Y012231D01*
X038215Y012162D01*
X038316Y012082D01*
X038407Y011990D01*
X038488Y011889D01*
X038556Y011780D01*
X038612Y011664D01*
X038655Y011542D01*
X038684Y011416D01*
X038698Y011287D01*
X038698Y010773D01*
X038420Y010773D01*
X038420Y010773D01*
X038698Y010773D01*
X038698Y010258D01*
X038684Y010130D01*
X038655Y010004D01*
X038612Y009882D01*
X038556Y009766D01*
X038488Y009656D01*
X038420Y009572D01*
X038420Y008692D01*
X038667Y008692D01*
X038915Y008589D01*
X039103Y008401D01*
X039103Y037619D01*
X015883Y037619D01*
X015883Y021773D01*
X013483Y021773D01*
X013483Y013604D01*
X013354Y013291D01*
X013114Y013052D01*
X012802Y012923D01*
X012708Y012923D01*
X012709Y012919D01*
X012709Y012627D01*
X012708Y012623D01*
X016033Y012623D01*
X016033Y013053D01*
X015773Y013313D01*
X015773Y014233D01*
X016423Y014883D01*
X017343Y014883D01*
X017993Y014233D01*
X017993Y013313D01*
X017733Y013053D01*
X017733Y011604D01*
X017604Y011291D01*
X017364Y011052D01*
X017052Y010923D01*
X016714Y010923D01*
X010464Y010923D01*
X010151Y011052D01*
X009912Y011291D01*
X009412Y011791D01*
X009346Y011951D01*
X009281Y011885D01*
X009027Y011739D01*
X008745Y011663D01*
X008021Y011663D01*
X007739Y011739D01*
X007485Y011885D01*
X007279Y012091D01*
X007133Y012344D01*
X007057Y012627D01*
X007057Y012919D01*
X007133Y013201D01*
X007174Y013273D01*
X007133Y013344D01*
X007057Y013627D01*
X007057Y013919D01*
X007058Y013923D01*
X005552Y013923D01*
X005214Y013923D01*
X004901Y014052D01*
X004662Y014291D01*
X004533Y014604D01*
X004533Y021773D01*
X004533Y021729D02*
X001033Y021729D01*
X001033Y021231D02*
X004533Y021231D01*
X004533Y020732D02*
X001033Y020732D01*
X001033Y020234D02*
X004533Y020234D01*
X004533Y019735D02*
X001033Y019735D01*
X001033Y019236D02*
X004533Y019236D01*
X004533Y018738D02*
X001033Y018738D01*
X001033Y018239D02*
X004533Y018239D01*
X004533Y017741D02*
X001033Y017741D01*
X001033Y017242D02*
X004533Y017242D01*
X004533Y016744D02*
X001033Y016744D01*
X001033Y016245D02*
X004533Y016245D01*
X004533Y015747D02*
X001033Y015747D01*
X001033Y015248D02*
X004533Y015248D01*
X004533Y014750D02*
X001033Y014750D01*
X001033Y014251D02*
X004703Y014251D01*
X007057Y013753D02*
X001033Y013753D01*
X001033Y013254D02*
X007163Y013254D01*
X007057Y012755D02*
X001033Y012755D01*
X001033Y012257D02*
X007183Y012257D01*
X007704Y011758D02*
X001033Y011758D01*
X001033Y011260D02*
X009944Y011260D01*
X009445Y011758D02*
X009062Y011758D01*
X012709Y012755D02*
X016033Y012755D01*
X015832Y013254D02*
X013316Y013254D01*
X013483Y013753D02*
X015773Y013753D01*
X015791Y014251D02*
X013483Y014251D01*
X013483Y014750D02*
X016290Y014750D01*
X017476Y014750D02*
X020290Y014750D01*
X020423Y014883D02*
X019773Y014233D01*
X019773Y013313D01*
X020423Y012663D01*
X021343Y012663D01*
X021993Y013313D01*
X021993Y014233D01*
X021343Y014883D01*
X020423Y014883D01*
X019791Y014251D02*
X017975Y014251D01*
X017993Y013753D02*
X019773Y013753D01*
X019832Y013254D02*
X017934Y013254D01*
X017733Y012755D02*
X020331Y012755D01*
X021435Y012755D02*
X024103Y012755D01*
X024217Y012257D02*
X024218Y012257D01*
X024217Y011758D02*
X024218Y011758D01*
X023714Y012257D02*
X017733Y012257D01*
X017733Y011758D02*
X023199Y011758D01*
X023068Y011260D02*
X017572Y011260D01*
X021476Y014750D02*
X022953Y014750D01*
X022712Y015248D02*
X013483Y015248D01*
X013483Y015747D02*
X022633Y015747D01*
X022633Y016245D02*
X013483Y016245D01*
X013483Y016744D02*
X022633Y016744D01*
X022633Y017242D02*
X013483Y017242D01*
X013483Y017741D02*
X022633Y017741D01*
X022633Y018239D02*
X013483Y018239D01*
X013483Y018738D02*
X022633Y018738D01*
X022633Y019236D02*
X013483Y019236D01*
X013483Y019735D02*
X022633Y019735D01*
X022633Y020234D02*
X013483Y020234D01*
X013483Y020732D02*
X022633Y020732D01*
X022633Y021231D02*
X013483Y021231D01*
X013483Y021729D02*
X022633Y021729D01*
X022633Y022228D02*
X015883Y022228D01*
X015883Y022726D02*
X022633Y022726D01*
X022633Y023225D02*
X015883Y023225D01*
X015883Y023723D02*
X022633Y023723D01*
X022633Y024222D02*
X015883Y024222D01*
X015883Y024720D02*
X022633Y024720D01*
X022633Y025219D02*
X015883Y025219D01*
X015883Y025718D02*
X022633Y025718D01*
X022633Y026216D02*
X015883Y026216D01*
X015883Y026715D02*
X022633Y026715D01*
X022633Y027213D02*
X015883Y027213D01*
X015883Y027712D02*
X022633Y027712D01*
X022633Y028210D02*
X015883Y028210D01*
X015883Y028709D02*
X022633Y028709D01*
X022633Y029207D02*
X015883Y029207D01*
X015883Y029706D02*
X022633Y029706D01*
X022633Y030204D02*
X015883Y030204D01*
X015883Y030703D02*
X022633Y030703D01*
X022633Y031202D02*
X020494Y031202D01*
X020513Y031220D02*
X020580Y031307D01*
X020635Y031402D01*
X020676Y031504D01*
X020705Y031609D01*
X020719Y031718D01*
X020719Y031773D01*
X020719Y031828D01*
X020705Y031936D01*
X020676Y032042D01*
X020635Y032144D01*
X020580Y032238D01*
X020527Y032308D01*
X020527Y032334D01*
X020489Y032426D01*
X020418Y032497D01*
X020326Y032535D01*
X020229Y032535D01*
X020152Y032566D01*
X020046Y032595D01*
X019938Y032609D01*
X019883Y032609D01*
X019883Y032535D01*
X019883Y032535D01*
X019883Y032609D01*
X019828Y032609D01*
X019719Y032595D01*
X019614Y032566D01*
X019537Y032535D01*
X019440Y032535D01*
X019348Y032497D01*
X019277Y032426D01*
X019239Y032334D01*
X019239Y032308D01*
X019186Y032238D01*
X019131Y032144D01*
X019089Y032042D01*
X019061Y031936D01*
X019047Y031828D01*
X019047Y031773D01*
X019239Y031773D01*
X019239Y031773D01*
X019047Y031773D01*
X019047Y031718D01*
X019061Y031609D01*
X019089Y031504D01*
X019131Y031402D01*
X019186Y031307D01*
X019253Y031220D01*
X019330Y031143D01*
X019340Y031135D01*
X019348Y031128D01*
X019353Y031126D01*
X019417Y031076D01*
X019512Y031021D01*
X019614Y030979D01*
X019719Y030951D01*
X019828Y030937D01*
X019883Y030937D01*
X019938Y030937D01*
X020046Y030951D01*
X020152Y030979D01*
X020254Y031021D01*
X020349Y031076D01*
X020413Y031126D01*
X020418Y031128D01*
X020426Y031135D01*
X020436Y031143D01*
X020513Y031220D01*
X020717Y031700D02*
X022686Y031700D01*
X022897Y032199D02*
X020603Y032199D01*
X020527Y031773D02*
X020719Y031773D01*
X020527Y031773D01*
X020527Y031773D01*
X019883Y031090D02*
X019883Y030937D01*
X019883Y031090D01*
X019883Y031090D01*
X019272Y031202D02*
X015883Y031202D01*
X015883Y031700D02*
X019049Y031700D01*
X019163Y032199D02*
X015883Y032199D01*
X015883Y032697D02*
X023350Y032697D01*
X023883Y031273D02*
X024383Y031273D01*
X026133Y029207D02*
X032856Y029207D01*
X032925Y029168D02*
X033227Y029087D01*
X033539Y029087D01*
X033841Y029168D01*
X034111Y029324D01*
X034332Y029545D01*
X034488Y029815D01*
X034569Y030117D01*
X034569Y030429D01*
X034488Y030731D01*
X034332Y031001D01*
X034111Y031222D01*
X033841Y031378D01*
X033539Y031459D01*
X033227Y031459D01*
X032925Y031378D01*
X032655Y031222D01*
X032434Y031001D01*
X032278Y030731D01*
X032197Y030429D01*
X032197Y030117D01*
X032278Y029815D01*
X032434Y029545D01*
X032655Y029324D01*
X032925Y029168D01*
X032341Y029706D02*
X029569Y029706D01*
X030219Y030204D02*
X032197Y030204D01*
X032270Y030703D02*
X030490Y030703D01*
X030583Y031202D02*
X032634Y031202D01*
X034132Y031202D02*
X036571Y031202D01*
X036592Y031222D02*
X036371Y031001D01*
X036215Y030731D01*
X036134Y030429D01*
X036134Y030117D01*
X036215Y029815D01*
X036371Y029545D01*
X036592Y029324D01*
X036862Y029168D01*
X037164Y029087D01*
X037476Y029087D01*
X037778Y029168D01*
X038048Y029324D01*
X038269Y029545D01*
X038425Y029815D01*
X038506Y030117D01*
X038506Y030429D01*
X038425Y030731D01*
X038269Y031001D01*
X038048Y031222D01*
X037778Y031378D01*
X037476Y031459D01*
X037164Y031459D01*
X036862Y031378D01*
X036592Y031222D01*
X036207Y030703D02*
X034496Y030703D01*
X034569Y030204D02*
X036134Y030204D01*
X036278Y029706D02*
X034425Y029706D01*
X033910Y029207D02*
X036793Y029207D01*
X037847Y029207D02*
X039103Y029207D01*
X039103Y028709D02*
X026133Y028709D01*
X026133Y028210D02*
X039103Y028210D01*
X039103Y027712D02*
X026133Y027712D01*
X026133Y027213D02*
X039103Y027213D01*
X039103Y026715D02*
X038056Y026715D01*
X038048Y026722D02*
X037778Y026878D01*
X037476Y026959D01*
X037164Y026959D01*
X036862Y026878D01*
X036592Y026722D01*
X036371Y026501D01*
X036215Y026231D01*
X036134Y025929D01*
X036134Y025617D01*
X036215Y025315D01*
X036371Y025045D01*
X036592Y024824D01*
X036862Y024668D01*
X037164Y024587D01*
X037476Y024587D01*
X037778Y024668D01*
X038048Y024824D01*
X038269Y025045D01*
X038425Y025315D01*
X038506Y025617D01*
X038506Y025929D01*
X038425Y026231D01*
X038269Y026501D01*
X038048Y026722D01*
X038429Y026216D02*
X039103Y026216D01*
X039103Y025718D02*
X038506Y025718D01*
X038370Y025219D02*
X039103Y025219D01*
X039103Y024720D02*
X037870Y024720D01*
X036770Y024720D02*
X033933Y024720D01*
X033841Y024668D02*
X034111Y024824D01*
X034332Y025045D01*
X034488Y025315D01*
X034569Y025617D01*
X034569Y025929D01*
X034488Y026231D01*
X034332Y026501D01*
X034111Y026722D01*
X033841Y026878D01*
X033539Y026959D01*
X033227Y026959D01*
X032925Y026878D01*
X032655Y026722D01*
X032434Y026501D01*
X032278Y026231D01*
X032197Y025929D01*
X032197Y025617D01*
X032278Y025315D01*
X032434Y025045D01*
X032655Y024824D01*
X032925Y024668D01*
X033227Y024587D01*
X033539Y024587D01*
X033841Y024668D01*
X034433Y025219D02*
X036270Y025219D01*
X036134Y025718D02*
X034569Y025718D01*
X034492Y026216D02*
X036211Y026216D01*
X036584Y026715D02*
X034119Y026715D01*
X032647Y026715D02*
X026133Y026715D01*
X026133Y026216D02*
X028329Y026216D01*
X028290Y026206D02*
X028681Y026310D01*
X029085Y026310D01*
X029476Y026206D01*
X029827Y026003D01*
X030113Y025717D01*
X030316Y025366D01*
X030420Y024975D01*
X030420Y024570D01*
X030316Y024179D01*
X030113Y023829D01*
X029827Y023543D01*
X029476Y023340D01*
X029085Y023236D01*
X028681Y023236D01*
X028290Y023340D01*
X027939Y023543D01*
X027653Y023829D01*
X027450Y024179D01*
X027346Y024570D01*
X027346Y024975D01*
X027450Y025366D01*
X027653Y025717D01*
X027939Y026003D01*
X028290Y026206D01*
X027653Y025718D02*
X026133Y025718D01*
X026133Y025219D02*
X027411Y025219D01*
X027346Y024720D02*
X026133Y024720D01*
X026133Y024222D02*
X027439Y024222D01*
X027758Y023723D02*
X026133Y023723D01*
X026133Y023225D02*
X039103Y023225D01*
X039103Y023723D02*
X030008Y023723D01*
X030327Y024222D02*
X039103Y024222D01*
X039103Y022726D02*
X026133Y022726D01*
X026133Y022228D02*
X028373Y022228D01*
X028290Y022206D02*
X028681Y022310D01*
X029085Y022310D01*
X029476Y022206D01*
X029827Y022003D01*
X030113Y021717D01*
X030316Y021366D01*
X030420Y020975D01*
X030420Y020570D01*
X030316Y020179D01*
X030113Y019829D01*
X029827Y019543D01*
X029476Y019340D01*
X029085Y019236D01*
X028681Y019236D01*
X028290Y019340D01*
X027939Y019543D01*
X027653Y019829D01*
X027450Y020179D01*
X027346Y020570D01*
X027346Y020975D01*
X027450Y021366D01*
X027653Y021717D01*
X027939Y022003D01*
X028290Y022206D01*
X027665Y021729D02*
X026133Y021729D01*
X026133Y021231D02*
X027414Y021231D01*
X027346Y020732D02*
X026133Y020732D01*
X026133Y020234D02*
X027436Y020234D01*
X027747Y019735D02*
X026133Y019735D01*
X026133Y019236D02*
X028677Y019236D01*
X029089Y019236D02*
X039103Y019236D01*
X039103Y019735D02*
X037895Y019735D01*
X037778Y019668D02*
X038048Y019824D01*
X038269Y020045D01*
X038425Y020315D01*
X038506Y020617D01*
X038506Y020929D01*
X038425Y021231D01*
X038269Y021501D01*
X038048Y021722D01*
X037778Y021878D01*
X037476Y021959D01*
X037164Y021959D01*
X036862Y021878D01*
X036592Y021722D01*
X036371Y021501D01*
X036215Y021231D01*
X036134Y020929D01*
X036134Y020617D01*
X036215Y020315D01*
X036371Y020045D01*
X036592Y019824D01*
X036862Y019668D01*
X037164Y019587D01*
X037476Y019587D01*
X037778Y019668D01*
X038378Y020234D02*
X039103Y020234D01*
X039103Y020732D02*
X038506Y020732D01*
X038425Y021231D02*
X039103Y021231D01*
X039103Y021729D02*
X038036Y021729D01*
X039103Y022228D02*
X029393Y022228D01*
X030101Y021729D02*
X032667Y021729D01*
X032655Y021722D02*
X032434Y021501D01*
X032278Y021231D01*
X032197Y020929D01*
X032197Y020617D01*
X032278Y020315D01*
X032434Y020045D01*
X032655Y019824D01*
X032925Y019668D01*
X033227Y019587D01*
X033539Y019587D01*
X033841Y019668D01*
X034111Y019824D01*
X034332Y020045D01*
X034488Y020315D01*
X034569Y020617D01*
X034569Y020929D01*
X034488Y021231D01*
X034332Y021501D01*
X034111Y021722D01*
X033841Y021878D01*
X033539Y021959D01*
X033227Y021959D01*
X032925Y021878D01*
X032655Y021722D01*
X032278Y021231D02*
X030352Y021231D01*
X030420Y020732D02*
X032197Y020732D01*
X032325Y020234D02*
X030330Y020234D01*
X030019Y019735D02*
X032808Y019735D01*
X033958Y019735D02*
X036745Y019735D01*
X036262Y020234D02*
X034441Y020234D01*
X034569Y020732D02*
X036134Y020732D01*
X036215Y021231D02*
X034488Y021231D01*
X034099Y021729D02*
X036604Y021729D01*
X039103Y018738D02*
X026133Y018738D01*
X026133Y018239D02*
X039103Y018239D01*
X039103Y017741D02*
X026133Y017741D01*
X026133Y017242D02*
X028283Y017242D01*
X028423Y017383D02*
X027773Y016733D01*
X027773Y015813D01*
X028423Y015163D01*
X029343Y015163D01*
X029993Y015813D01*
X029993Y016733D01*
X029343Y017383D01*
X028423Y017383D01*
X027784Y016744D02*
X026133Y016744D01*
X026133Y016245D02*
X027773Y016245D01*
X027839Y015747D02*
X026185Y015747D01*
X026434Y015248D02*
X028338Y015248D01*
X029428Y015248D02*
X032338Y015248D01*
X032423Y015163D02*
X033343Y015163D01*
X033993Y015813D01*
X033993Y016733D01*
X033343Y017383D01*
X032423Y017383D01*
X031773Y016733D01*
X031773Y015813D01*
X032423Y015163D01*
X031839Y015747D02*
X029926Y015747D01*
X029993Y016245D02*
X031773Y016245D01*
X031784Y016744D02*
X029982Y016744D01*
X029483Y017242D02*
X032283Y017242D01*
X033483Y017242D02*
X039103Y017242D01*
X039103Y016744D02*
X033982Y016744D01*
X033993Y016245D02*
X039103Y016245D01*
X039103Y015747D02*
X033926Y015747D01*
X033428Y015248D02*
X039103Y015248D01*
X039103Y014750D02*
X026683Y014750D01*
X026933Y014251D02*
X039103Y014251D01*
X039103Y013753D02*
X027182Y013753D01*
X027431Y013254D02*
X039103Y013254D01*
X039103Y012755D02*
X027681Y012755D01*
X029636Y012257D02*
X032130Y012257D01*
X031808Y011758D02*
X029958Y011758D01*
X030048Y011260D02*
X031718Y011260D01*
X031718Y010761D02*
X030048Y010761D01*
X030048Y010263D02*
X031718Y010263D01*
X031814Y009764D02*
X029951Y009764D01*
X029612Y009266D02*
X032154Y009266D01*
X032346Y008767D02*
X029420Y008767D01*
X030159Y008269D02*
X031607Y008269D01*
X031558Y007770D02*
X030208Y007770D01*
X036470Y012257D02*
X037045Y012257D01*
X037548Y012257D02*
X037549Y012257D01*
X037548Y011758D02*
X037549Y011758D01*
X038052Y012257D02*
X039103Y012257D01*
X039103Y011758D02*
X038567Y011758D01*
X038698Y011260D02*
X039103Y011260D01*
X039103Y010761D02*
X038698Y010761D01*
X038698Y010263D02*
X039103Y010263D01*
X039103Y009764D02*
X038555Y009764D01*
X038420Y009266D02*
X039103Y009266D01*
X039103Y008767D02*
X038420Y008767D01*
X023854Y013254D02*
X021934Y013254D01*
X021993Y013753D02*
X023604Y013753D01*
X023355Y014251D02*
X021975Y014251D01*
X023068Y010761D02*
X001033Y010761D01*
X001033Y010263D02*
X023068Y010263D01*
X023211Y009764D02*
X001033Y009764D01*
X001033Y009266D02*
X023346Y009266D01*
X023346Y008767D02*
X001033Y008767D01*
X001033Y008269D02*
X022607Y008269D01*
X022558Y007770D02*
X001033Y007770D01*
X015883Y033196D02*
X039103Y033196D01*
X039103Y033694D02*
X015883Y033694D01*
X015883Y034193D02*
X027789Y034193D01*
X027653Y034329D02*
X027939Y034043D01*
X028290Y033840D01*
X028681Y033736D01*
X029085Y033736D01*
X029476Y033840D01*
X029827Y034043D01*
X030113Y034329D01*
X030316Y034679D01*
X030420Y035070D01*
X030420Y035475D01*
X030316Y035866D01*
X030113Y036217D01*
X029827Y036503D01*
X029476Y036706D01*
X029085Y036810D01*
X028681Y036810D01*
X028290Y036706D01*
X027939Y036503D01*
X027653Y036217D01*
X027450Y035866D01*
X027346Y035475D01*
X027346Y035070D01*
X027450Y034679D01*
X027653Y034329D01*
X027447Y034691D02*
X022850Y034691D01*
X022799Y034640D02*
X023016Y034857D01*
X023133Y035140D01*
X023133Y035400D01*
X023133Y035706D01*
X023126Y035724D01*
X023133Y035742D01*
X023133Y035916D01*
X023133Y036222D01*
X023016Y036505D01*
X022873Y036648D01*
X022873Y036824D01*
X022756Y037107D01*
X022539Y037324D01*
X022256Y037441D01*
X021950Y037441D01*
X021667Y037324D01*
X021450Y037107D01*
X021333Y036824D01*
X021333Y036648D01*
X021190Y036505D01*
X021073Y036222D01*
X021073Y036048D01*
X021073Y035742D01*
X021080Y035724D01*
X021073Y035706D01*
X021073Y035140D01*
X021190Y034857D01*
X021406Y034640D01*
X021689Y034523D01*
X021996Y034523D01*
X022210Y034523D01*
X022516Y034523D01*
X022799Y034640D01*
X023133Y035190D02*
X027346Y035190D01*
X027403Y035688D02*
X023133Y035688D01*
X023133Y036187D02*
X027636Y036187D01*
X028255Y036686D02*
X022873Y036686D01*
X022679Y037184D02*
X039103Y037184D01*
X039103Y036686D02*
X029511Y036686D01*
X030130Y036187D02*
X032619Y036187D01*
X032655Y036222D02*
X032434Y036001D01*
X032278Y035731D01*
X032197Y035429D01*
X032197Y035117D01*
X032278Y034815D01*
X032434Y034545D01*
X032655Y034324D01*
X032925Y034168D01*
X033227Y034087D01*
X033539Y034087D01*
X033841Y034168D01*
X034111Y034324D01*
X034332Y034545D01*
X034488Y034815D01*
X034569Y035117D01*
X034569Y035429D01*
X034488Y035731D01*
X034332Y036001D01*
X034111Y036222D01*
X033841Y036378D01*
X033539Y036459D01*
X033227Y036459D01*
X032925Y036378D01*
X032655Y036222D01*
X032266Y035688D02*
X030363Y035688D01*
X030420Y035190D02*
X032197Y035190D01*
X032349Y034691D02*
X030319Y034691D01*
X029977Y034193D02*
X032881Y034193D01*
X033885Y034193D02*
X036818Y034193D01*
X036862Y034168D02*
X037164Y034087D01*
X037476Y034087D01*
X037778Y034168D01*
X038048Y034324D01*
X038269Y034545D01*
X038425Y034815D01*
X038506Y035117D01*
X038506Y035429D01*
X038425Y035731D01*
X038269Y036001D01*
X038048Y036222D01*
X037778Y036378D01*
X037476Y036459D01*
X037164Y036459D01*
X036862Y036378D01*
X036592Y036222D01*
X036371Y036001D01*
X036215Y035731D01*
X036134Y035429D01*
X036134Y035117D01*
X036215Y034815D01*
X036371Y034545D01*
X036592Y034324D01*
X036862Y034168D01*
X036286Y034691D02*
X034417Y034691D01*
X034569Y035190D02*
X036134Y035190D01*
X036203Y035688D02*
X034500Y035688D01*
X034146Y036187D02*
X036556Y036187D01*
X038083Y036187D02*
X039103Y036187D01*
X039103Y035688D02*
X038437Y035688D01*
X038506Y035190D02*
X039103Y035190D01*
X039103Y034691D02*
X038354Y034691D01*
X037822Y034193D02*
X039103Y034193D01*
X039103Y032697D02*
X029816Y032697D01*
X030311Y032199D02*
X039103Y032199D01*
X039103Y031700D02*
X030528Y031700D01*
X029437Y026216D02*
X032274Y026216D01*
X032197Y025718D02*
X030113Y025718D01*
X030355Y025219D02*
X032333Y025219D01*
X032833Y024720D02*
X030420Y024720D01*
X038069Y031202D02*
X039103Y031202D01*
X039103Y030703D02*
X038433Y030703D01*
X038506Y030204D02*
X039103Y030204D01*
X039103Y029706D02*
X038362Y029706D01*
X021527Y037184D02*
X015883Y037184D01*
X015883Y036686D02*
X021333Y036686D01*
X021073Y036187D02*
X020571Y036187D01*
X020565Y036194D02*
X020528Y036285D01*
X020458Y036355D01*
X020367Y036392D01*
X020349Y036407D01*
X020254Y036461D01*
X020152Y036503D01*
X020046Y036532D01*
X019938Y036546D01*
X019883Y036546D01*
X019883Y036393D01*
X019883Y036393D01*
X019883Y036546D01*
X019828Y036546D01*
X019719Y036532D01*
X019614Y036503D01*
X019512Y036461D01*
X019417Y036407D01*
X019399Y036392D01*
X019308Y036355D01*
X019238Y036285D01*
X019200Y036194D01*
X019186Y036175D01*
X019131Y036081D01*
X019089Y035979D01*
X019061Y035873D01*
X019047Y035765D01*
X019047Y035710D01*
X019200Y035710D01*
X019200Y035710D01*
X019047Y035710D01*
X019047Y035655D01*
X019061Y035546D01*
X019089Y035441D01*
X019131Y035339D01*
X019186Y035244D01*
X019201Y035226D01*
X019238Y035135D01*
X019308Y035065D01*
X019399Y035027D01*
X019417Y035013D01*
X019512Y034958D01*
X019614Y034916D01*
X019719Y034888D01*
X019828Y034874D01*
X019883Y034874D01*
X019938Y034874D01*
X020046Y034888D01*
X020152Y034916D01*
X020254Y034958D01*
X020349Y035013D01*
X020367Y035027D01*
X020458Y035065D01*
X020528Y035135D01*
X020565Y035226D01*
X020580Y035244D01*
X020635Y035339D01*
X020676Y035441D01*
X020705Y035546D01*
X020719Y035655D01*
X020719Y035710D01*
X020719Y035765D01*
X020705Y035873D01*
X020676Y035979D01*
X020635Y036081D01*
X020580Y036175D01*
X020565Y036194D01*
X020566Y035710D02*
X020719Y035710D01*
X020566Y035710D01*
X020566Y035710D01*
X020719Y035688D02*
X021073Y035688D01*
X021073Y035190D02*
X020551Y035190D01*
X019883Y035027D02*
X019883Y034874D01*
X019883Y035027D01*
X019883Y035027D01*
X019215Y035190D02*
X015883Y035190D01*
X015883Y035688D02*
X019047Y035688D01*
X019195Y036187D02*
X015883Y036187D01*
X015883Y034691D02*
X021355Y034691D01*
D23*
X015883Y028773D02*
X012383Y028773D01*
X009383Y028773D01*
D24*
X024383Y015773D02*
X026383Y011773D01*
D25*
X024383Y015773D02*
X024383Y031273D01*
D26*
X028883Y031273D01*
M02*
